<?xml version="1.0" encoding="UTF-8"?>
<svg xmlns="http://www.w3.org/2000/svg" xmlns:xlink="http://www.w3.org/1999/xlink" width="361pt" height="246pt" viewBox="0 0 361 246" version="1.1">
<defs>
<clipPath id="clip1">
  <path d="M 0 0 L 360 0 L 360 245 L 0 245 Z "/>
</clipPath>
</defs>
<g id="surface21">
<path style="fill-rule:nonzero;fill:rgb(99.998474%,99.998474%,99.998474%);fill-opacity:1;stroke-width:0.03;stroke-linecap:butt;stroke-linejoin:miter;stroke:rgb(99.998474%,99.998474%,99.998474%);stroke-opacity:1;stroke-miterlimit:10;" d="M 74 258 L 434 258 L 434 13 L 74 13 Z " transform="matrix(1,0,0,1,-74,-13)"/>
<g clip-path="url(#clip1)" clip-rule="nonzero">
<path style="fill:none;stroke-width:2;stroke-linecap:square;stroke-linejoin:miter;stroke:rgb(0%,0%,0%);stroke-opacity:1;stroke-miterlimit:3.25;" d="M 425.320313 135 C 425.320313 104.53125 407.164063 75.3125 374.847656 53.765625 C 342.53125 32.222656 298.703125 20.121094 253 20.121094 C 207.296875 20.121094 163.46875 32.222656 131.152344 53.765625 C 98.835938 75.3125 80.679688 104.53125 80.679688 135 C 80.679688 165.46875 98.835938 194.6875 131.152344 216.234375 C 163.46875 237.777344 207.296875 249.878906 253 249.878906 C 298.703125 249.878906 342.53125 237.777344 374.847656 216.234375 C 407.164063 194.6875 425.320313 165.46875 425.320313 135 Z " transform="matrix(1,0,0,1,-74,-13)"/>
</g>
<path style="fill-rule:evenodd;fill:rgb(0%,66.665649%,0%);fill-opacity:0.1;stroke-width:1;stroke-linecap:square;stroke-linejoin:miter;stroke:rgb(0%,66.665649%,0%);stroke-opacity:1;stroke-miterlimit:3.25;" d="M 378.015625 150 C 378.015625 134.347656 371.796875 119.335938 360.730469 108.269531 C 349.664063 97.203125 334.652344 90.984375 319 90.984375 C 303.347656 90.984375 288.335938 97.203125 277.269531 108.269531 C 266.203125 119.335938 259.984375 134.347656 259.984375 150 C 259.984375 165.652344 266.203125 180.664063 277.269531 191.730469 C 288.335938 202.796875 303.347656 209.015625 319 209.015625 C 334.652344 209.015625 349.664063 202.796875 360.730469 191.730469 C 371.796875 180.664063 378.015625 165.652344 378.015625 150 Z " transform="matrix(1,0,0,1,-74,-13)"/>
<path style="fill:none;stroke-width:2;stroke-linecap:square;stroke-linejoin:miter;stroke:rgb(0%,0%,99.998474%);stroke-opacity:1;stroke-miterlimit:3.25;" d="M 402.734375 77.332031 L 356.839844 226.703125 L 81.53125 127.441406 Z " transform="matrix(1,0,0,1,-74,-13)"/>
<path style=" stroke:none;fill-rule:evenodd;fill:rgb(0%,0%,0%);fill-opacity:1;" d="M 332.5 64 C 332.5 63.070313 332.132813 62.179688 331.476563 61.523438 C 330.820313 60.867188 329.929688 60.5 329 60.5 C 328.070313 60.5 327.179688 60.867188 326.523438 61.523438 C 325.867188 62.179688 325.5 63.070313 325.5 64 C 325.5 64.929688 325.867188 65.820313 326.523438 66.476563 C 327.179688 67.132813 328.070313 67.5 329 67.5 C 329.929688 67.5 330.820313 67.132813 331.476563 66.476563 C 332.132813 65.820313 332.5 64.929688 332.5 64 Z "/>
<path style=" stroke:none;fill-rule:evenodd;fill:rgb(0%,0%,0%);fill-opacity:1;" d="M 286.5 214 C 286.5 213.070313 286.132813 212.179688 285.476563 211.523438 C 284.820313 210.867188 283.929688 210.5 283 210.5 C 282.070313 210.5 281.179688 210.867188 280.523438 211.523438 C 279.867188 212.179688 279.5 213.070313 279.5 214 C 279.5 214.929688 279.867188 215.820313 280.523438 216.476563 C 281.179688 217.132813 282.070313 217.5 283 217.5 C 283.929688 217.5 284.820313 217.132813 285.476563 216.476563 C 286.132813 215.820313 286.5 214.929688 286.5 214 Z "/>
<path style=" stroke:none;fill-rule:evenodd;fill:rgb(0%,0%,0%);fill-opacity:1;" d="M 11.5 114 C 11.5 113.070313 11.132813 112.179688 10.476563 111.523438 C 9.820313 110.867188 8.929688 110.5 8 110.5 C 7.070313 110.5 6.179688 110.867188 5.523438 111.523438 C 4.867188 112.179688 4.5 113.070313 4.5 114 C 4.5 114.929688 4.867188 115.820313 5.523438 116.476563 C 6.179688 117.132813 7.070313 117.5 8 117.5 C 8.929688 117.5 9.820313 117.132813 10.476563 116.476563 C 11.132813 115.820313 11.5 114.929688 11.5 114 Z "/>
<path style="fill:none;stroke-width:1;stroke-linecap:square;stroke-linejoin:miter;stroke:rgb(50%,50%,50%);stroke-opacity:1;stroke-dasharray:4,4;stroke-miterlimit:3.25;" d="M 81.179688 134.773438 L 425.820313 134.773438 " transform="matrix(1,0,0,1,-74,-13)"/>
<path style="fill:none;stroke-width:1;stroke-linecap:square;stroke-linejoin:miter;stroke:rgb(50%,50%,50%);stroke-opacity:1;stroke-dasharray:4,4;stroke-miterlimit:3.25;" d="M 253.5 249.652344 L 253.5 19.894531 " transform="matrix(1,0,0,1,-74,-13)"/>
<path style=" stroke:none;fill-rule:evenodd;fill:rgb(0%,0%,0%);fill-opacity:1;" d="M 182.5 122 C 182.5 121.070313 182.132813 120.179688 181.476563 119.523438 C 180.820313 118.867188 179.929688 118.5 179 118.5 C 178.070313 118.5 177.179688 118.867188 176.523438 119.523438 C 175.867188 120.179688 175.5 121.070313 175.5 122 C 175.5 122.929688 175.867188 123.820313 176.523438 124.476563 C 177.179688 125.132813 178.070313 125.5 179 125.5 C 179.929688 125.5 180.820313 125.132813 181.476563 124.476563 C 182.132813 123.820313 182.5 122.929688 182.5 122 Z "/>
<path style="fill:none;stroke-width:2;stroke-linecap:square;stroke-linejoin:miter;stroke:rgb(0%,66.665649%,0%);stroke-opacity:1;stroke-miterlimit:3.25;" d="M 180.546875 134.773438 L 181.152344 139.171875 L 182.953125 143.480469 L 185.886719 147.605469 L 189.84375 151.464844 L 194.707031 155.003906 L 200.324219 158.167969 L 206.539063 160.921875 L 213.195313 163.253906 L 220.144531 165.160156 L 227.246094 166.652344 L 234.378906 167.746094 L 241.445313 168.472656 L 248.355469 168.855469 L 255.046875 168.933594 L 261.464844 168.738281 L 267.574219 168.300781 L 273.351563 167.652344 L 278.785156 166.824219 L 283.863281 165.84375 L 288.585938 164.730469 L 292.964844 163.511719 L 297 162.203125 L 300.707031 160.824219 L 304.097656 159.386719 L 307.1875 157.90625 L 309.992188 156.394531 L 312.519531 154.859375 L 314.789063 153.308594 L 316.816406 151.746094 L 318.609375 150.183594 L 320.1875 148.625 L 321.5625 147.074219 L 322.742188 145.535156 L 323.738281 144.007813 L 324.5625 142.5 L 325.230469 141.007813 L 325.742188 139.539063 L 326.109375 138.089844 L 326.339844 136.664063 L 326.445313 135.261719 L 326.429688 133.886719 L 326.296875 132.539063 L 326.058594 131.214844 L 325.714844 129.921875 L 325.273438 128.652344 L 324.742188 127.410156 L 324.121094 126.199219 L 323.414063 125.015625 L 322.632813 123.859375 L 321.773438 122.730469 L 320.84375 121.628906 L 319.84375 120.558594 L 318.777344 119.515625 L 317.652344 118.5 L 316.464844 117.515625 L 315.222656 116.558594 L 313.929688 115.628906 L 312.582031 114.726563 L 311.183594 113.855469 L 309.742188 113.011719 L 308.257813 112.195313 L 306.726563 111.40625 L 305.15625 110.644531 L 303.550781 109.914063 L 301.90625 109.207031 L 300.226563 108.53125 L 298.515625 107.882813 L 296.773438 107.261719 L 295 106.671875 L 293.199219 106.105469 L 291.371094 105.566406 L 289.519531 105.058594 L 287.644531 104.578125 L 285.746094 104.121094 L 283.828125 103.695313 L 281.890625 103.296875 L 279.9375 102.925781 L 277.964844 102.582031 L 275.980469 102.265625 L 273.980469 101.976563 L 271.964844 101.714844 L 269.941406 101.480469 L 267.910156 101.277344 L 265.867188 101.097656 L 263.816406 100.945313 L 261.761719 100.824219 L 259.699219 100.726563 L 257.636719 100.65625 L 255.566406 100.617188 L 253.5 100.601563 L 251.433594 100.617188 L 249.363281 100.65625 L 247.300781 100.726563 L 245.238281 100.824219 L 243.183594 100.945313 L 241.132813 101.097656 L 239.089844 101.277344 L 237.058594 101.480469 L 235.035156 101.714844 L 233.019531 101.976563 L 231.019531 102.265625 L 229.035156 102.582031 L 227.0625 102.925781 L 225.109375 103.296875 L 223.171875 103.695313 L 221.253906 104.121094 L 219.355469 104.578125 L 217.480469 105.058594 L 215.628906 105.566406 L 213.800781 106.105469 L 212 106.671875 L 210.226563 107.261719 L 208.484375 107.882813 L 206.773438 108.53125 L 205.09375 109.207031 L 203.449219 109.914063 L 201.84375 110.644531 L 200.273438 111.40625 L 198.742188 112.195313 L 197.257813 113.011719 L 195.816406 113.855469 L 194.417969 114.726563 L 193.070313 115.628906 L 191.777344 116.558594 L 190.535156 117.515625 L 189.347656 118.5 L 188.222656 119.515625 L 187.15625 120.558594 L 186.15625 121.628906 L 185.226563 122.730469 L 184.367188 123.859375 L 183.585938 125.015625 L 182.878906 126.199219 L 182.257813 127.410156 L 181.726563 128.652344 L 181.285156 129.921875 L 180.941406 131.214844 L 180.703125 132.539063 L 180.570313 133.886719 L 180.554688 135.261719 L 180.660156 136.664063 L 180.890625 138.089844 L 181.257813 139.539063 L 181.769531 141.007813 L 182.4375 142.5 L 183.261719 144.007813 L 184.257813 145.535156 L 185.4375 147.074219 L 186.8125 148.625 L 188.390625 150.183594 L 190.183594 151.746094 L 192.210938 153.308594 L 194.480469 154.859375 L 197.007813 156.394531 L 199.8125 157.90625 L 202.902344 159.386719 L 206.292969 160.824219 L 210 162.203125 L 214.035156 163.511719 L 218.414063 164.730469 L 223.136719 165.84375 L 228.214844 166.824219 L 233.648438 167.652344 L 239.425781 168.300781 L 245.535156 168.738281 L 251.953125 168.933594 L 258.644531 168.855469 L 265.554688 168.472656 L 272.621094 167.746094 L 279.753906 166.652344 L 286.855469 165.160156 L 293.804688 163.253906 L 300.460938 160.921875 L 306.675781 158.167969 L 312.292969 155.003906 L 317.15625 151.464844 L 321.113281 147.605469 L 324.046875 143.480469 L 325.847656 139.171875 L 326.453125 134.773438 L 325.847656 130.371094 L 324.046875 126.066406 L 321.113281 121.941406 L 317.15625 118.078125 L 312.292969 114.542969 L 306.675781 111.378906 L 300.460938 108.625 L 293.804688 106.292969 L 286.855469 104.382813 L 279.753906 102.894531 L 272.621094 101.796875 L 265.554688 101.074219 L 258.644531 100.6875 L 251.953125 100.609375 L 245.535156 100.808594 L 239.425781 101.246094 L 233.648438 101.894531 L 228.214844 102.722656 L 223.136719 103.703125 L 218.414063 104.816406 L 214.035156 106.035156 L 210 107.34375 L 206.292969 108.722656 L 202.902344 110.15625 L 199.8125 111.636719 L 197.007813 113.152344 L 194.480469 114.6875 L 192.210938 116.238281 L 190.183594 117.796875 L 188.390625 119.359375 L 186.8125 120.917969 L 185.4375 122.46875 L 184.257813 124.011719 L 183.261719 125.535156 L 182.4375 127.046875 L 181.769531 128.539063 L 181.257813 130.007813 L 180.890625 131.457031 L 180.660156 132.882813 L 180.554688 134.28125 L 180.570313 135.65625 L 180.703125 137.007813 L 180.941406 138.328125 L 181.285156 139.625 L 181.726563 140.894531 L 182.257813 142.132813 L 182.878906 143.347656 L 183.585938 144.53125 L 184.367188 145.6875 L 185.226563 146.816406 L 186.15625 147.914063 L 187.15625 148.984375 L 188.222656 150.027344 L 189.347656 151.042969 L 190.535156 152.03125 L 191.777344 152.988281 L 193.070313 153.917969 L 194.417969 154.816406 L 195.816406 155.691406 L 197.257813 156.535156 L 198.742188 157.351563 L 200.273438 158.140625 L 201.84375 158.902344 L 203.449219 159.632813 L 205.09375 160.335938 L 206.773438 161.011719 L 208.484375 161.660156 L 210.226563 162.28125 L 212 162.875 L 213.800781 163.441406 L 215.628906 163.976563 L 217.480469 164.488281 L 219.355469 164.96875 L 221.253906 165.421875 L 223.171875 165.851563 L 225.109375 166.25 L 227.0625 166.621094 L 229.035156 166.964844 L 231.019531 167.28125 L 233.019531 167.570313 L 235.035156 167.828125 L 237.058594 168.0625 L 239.089844 168.269531 L 241.132813 168.449219 L 243.183594 168.597656 L 245.238281 168.722656 L 247.300781 168.820313 L 249.363281 168.886719 L 251.433594 168.929688 L 253.5 168.941406 L 255.566406 168.929688 L 257.636719 168.886719 L 259.699219 168.820313 L 261.761719 168.722656 L 263.816406 168.597656 L 265.867188 168.449219 L 267.910156 168.269531 L 269.941406 168.0625 L 271.964844 167.828125 L 273.980469 167.570313 L 275.980469 167.28125 L 277.964844 166.964844 L 279.9375 166.621094 L 281.890625 166.25 L 283.828125 165.851563 L 285.746094 165.421875 L 287.644531 164.96875 L 289.519531 164.488281 L 291.371094 163.976563 L 293.199219 163.441406 L 295 162.875 L 296.773438 162.28125 L 298.515625 161.660156 L 300.226563 161.011719 L 301.90625 160.335938 L 303.550781 159.632813 L 305.15625 158.902344 L 306.726563 158.140625 L 308.257813 157.351563 L 309.742188 156.535156 L 311.183594 155.691406 L 312.582031 154.816406 L 313.929688 153.917969 L 315.222656 152.988281 L 316.464844 152.03125 L 317.652344 151.042969 L 318.777344 150.027344 L 319.84375 148.984375 L 320.84375 147.914063 L 321.773438 146.816406 L 322.632813 145.6875 L 323.414063 144.53125 L 324.121094 143.347656 L 324.742188 142.132813 L 325.273438 140.894531 L 325.714844 139.625 L 326.058594 138.328125 L 326.296875 137.007813 L 326.429688 135.65625 L 326.445313 134.28125 L 326.339844 132.882813 L 326.109375 131.457031 L 325.742188 130.007813 L 325.230469 128.539063 L 324.5625 127.046875 L 323.738281 125.535156 L 322.742188 124.011719 L 321.5625 122.46875 L 320.1875 120.917969 L 318.609375 119.359375 L 316.816406 117.796875 L 314.789063 116.238281 L 312.519531 114.6875 L 309.992188 113.152344 L 307.1875 111.636719 L 304.097656 110.15625 L 300.707031 108.722656 L 297 107.34375 L 292.964844 106.035156 L 288.585938 104.816406 L 283.863281 103.703125 L 278.785156 102.722656 L 273.351563 101.894531 L 267.574219 101.246094 L 261.464844 100.808594 L 255.046875 100.609375 L 248.355469 100.6875 L 241.445313 101.074219 L 234.378906 101.796875 L 227.246094 102.894531 L 220.144531 104.382813 L 213.195313 106.292969 L 206.539063 108.625 L 200.324219 111.378906 L 194.707031 114.542969 L 189.84375 118.078125 L 185.886719 121.941406 L 182.953125 126.066406 L 181.152344 130.371094 L 180.546875 134.773438 " transform="matrix(1,0,0,1,-74,-13)"/>
<path style=" stroke:none;fill-rule:evenodd;fill:rgb(66.665649%,33.332825%,0%);fill-opacity:1;" d="M 228.5 193 C 228.5 192.070313 228.132813 191.179688 227.476563 190.523438 C 226.820313 189.867188 225.929688 189.5 225 189.5 C 224.070313 189.5 223.179688 189.867188 222.523438 190.523438 C 221.867188 191.179688 221.5 192.070313 221.5 193 C 221.5 193.929688 221.867188 194.820313 222.523438 195.476563 C 223.179688 196.132813 224.070313 196.5 225 196.5 C 225.929688 196.5 226.820313 196.132813 227.476563 195.476563 C 228.132813 194.820313 228.5 193.929688 228.5 193 Z "/>
<path style=" stroke:none;fill-rule:evenodd;fill:rgb(66.665649%,33.332825%,0%);fill-opacity:1;" d="M 239.5 79 C 239.5 78.070313 239.132813 77.179688 238.476563 76.523438 C 237.820313 75.867188 236.929688 75.5 236 75.5 C 235.070313 75.5 234.179688 75.867188 233.523438 76.523438 C 232.867188 77.179688 232.5 78.070313 232.5 79 C 232.5 79.929688 232.867188 80.820313 233.523438 81.476563 C 234.179688 82.132813 235.070313 82.5 236 82.5 C 236.929688 82.5 237.820313 82.132813 238.476563 81.476563 C 239.132813 80.820313 239.5 79.929688 239.5 79 Z "/>
<path style=" stroke:none;fill-rule:evenodd;fill:rgb(66.665649%,33.332825%,0%);fill-opacity:1;" d="M 304.5 155 C 304.5 154.070313 304.132813 153.179688 303.476563 152.523438 C 302.820313 151.867188 301.929688 151.5 301 151.5 C 300.070313 151.5 299.179688 151.867188 298.523438 152.523438 C 297.867188 153.179688 297.5 154.070313 297.5 155 C 297.5 155.929688 297.867188 156.820313 298.523438 157.476563 C 299.179688 158.132813 300.070313 158.5 301 158.5 C 301.929688 158.5 302.820313 158.132813 303.476563 157.476563 C 304.132813 156.820313 304.5 155.929688 304.5 155 Z "/>
<path style="fill:none;stroke-width:2;stroke-linecap:square;stroke-linejoin:miter;stroke:rgb(66.665649%,33.332825%,0%);stroke-opacity:1;stroke-dasharray:4,4;stroke-miterlimit:3.25;" d="M 122.183594 134.773438 L 122.941406 144.054688 L 125.191406 153.167969 L 128.847656 161.964844 L 133.796875 170.292969 L 139.871094 178.050781 L 146.894531 185.144531 L 154.667969 191.519531 L 163 197.144531 L 171.707031 202.015625 L 180.617188 206.148438 L 189.578125 209.582031 L 198.46875 212.355469 L 207.179688 214.523438 L 215.628906 216.148438 L 223.753906 217.28125 L 231.507813 217.980469 L 238.863281 218.304688 L 245.804688 218.300781 L 252.316406 218.019531 L 258.40625 217.503906 L 264.074219 216.785156 L 269.332031 215.902344 L 274.195313 214.882813 L 278.679688 213.753906 L 282.800781 212.535156 L 286.578125 211.25 L 290.027344 209.910156 L 293.167969 208.53125 L 296.019531 207.125 L 298.59375 205.703125 L 300.910156 204.273438 L 302.984375 202.84375 L 304.828125 201.417969 L 306.457031 200 L 307.886719 198.601563 L 309.125 197.214844 L 310.183594 195.855469 L 311.074219 194.515625 L 311.808594 193.199219 L 312.394531 191.910156 L 312.835938 190.648438 L 313.148438 189.414063 L 313.335938 188.210938 L 313.402344 187.035156 L 313.359375 185.890625 L 313.210938 184.777344 L 312.960938 183.691406 L 312.613281 182.636719 L 312.179688 181.613281 L 311.660156 180.617188 L 311.0625 179.652344 L 310.382813 178.714844 L 309.632813 177.804688 L 308.816406 176.925781 L 307.929688 176.078125 L 306.980469 175.253906 L 305.976563 174.460938 L 304.910156 173.695313 L 303.792969 172.953125 L 302.625 172.242188 L 301.40625 171.554688 L 300.144531 170.894531 L 298.835938 170.261719 L 297.484375 169.652344 L 296.09375 169.070313 L 294.667969 168.511719 L 293.207031 167.976563 L 291.707031 167.46875 L 290.179688 166.984375 L 288.621094 166.523438 L 287.035156 166.085938 L 285.417969 165.675781 L 283.78125 165.285156 L 282.117188 164.917969 L 280.433594 164.574219 L 278.726563 164.253906 L 277.003906 163.957031 L 275.261719 163.683594 L 273.503906 163.429688 L 271.730469 163.199219 L 269.945313 162.992188 L 268.148438 162.804688 L 266.339844 162.640625 L 264.523438 162.5 L 262.699219 162.378906 L 260.867188 162.28125 L 259.027344 162.207031 L 257.1875 162.152344 L 255.34375 162.121094 L 253.5 162.109375 L 251.65625 162.121094 L 249.8125 162.152344 L 247.972656 162.207031 L 246.132813 162.28125 L 244.300781 162.378906 L 242.476563 162.5 L 240.660156 162.640625 L 238.851563 162.804688 L 237.054688 162.992188 L 235.269531 163.199219 L 233.496094 163.429688 L 231.738281 163.683594 L 229.996094 163.957031 L 228.273438 164.253906 L 226.566406 164.574219 L 224.882813 164.917969 L 223.21875 165.285156 L 221.582031 165.675781 L 219.964844 166.085938 L 218.378906 166.523438 L 216.820313 166.984375 L 215.292969 167.46875 L 213.792969 167.976563 L 212.332031 168.511719 L 210.90625 169.070313 L 209.515625 169.652344 L 208.164063 170.261719 L 206.855469 170.894531 L 205.59375 171.554688 L 204.375 172.242188 L 203.207031 172.953125 L 202.089844 173.695313 L 201.023438 174.460938 L 200.019531 175.253906 L 199.070313 176.078125 L 198.183594 176.925781 L 197.367188 177.804688 L 196.617188 178.714844 L 195.9375 179.652344 L 195.339844 180.617188 L 194.820313 181.613281 L 194.386719 182.636719 L 194.039063 183.691406 L 193.789063 184.777344 L 193.640625 185.890625 L 193.597656 187.035156 L 193.664063 188.210938 L 193.851563 189.414063 L 194.164063 190.648438 L 194.605469 191.910156 L 195.191406 193.199219 L 195.925781 194.515625 L 196.816406 195.855469 L 197.875 197.214844 L 199.113281 198.601563 L 200.542969 200 L 202.171875 201.417969 L 204.015625 202.84375 L 206.089844 204.273438 L 208.40625 205.703125 L 210.980469 207.125 L 213.832031 208.53125 L 216.972656 209.910156 L 220.421875 211.25 L 224.199219 212.535156 L 228.320313 213.753906 L 232.804688 214.882813 L 237.667969 215.902344 L 242.925781 216.785156 L 248.59375 217.503906 L 254.683594 218.019531 L 261.195313 218.300781 L 268.136719 218.304688 L 275.492188 217.980469 L 283.246094 217.28125 L 291.371094 216.148438 L 299.820313 214.523438 L 308.53125 212.355469 L 317.421875 209.582031 L 326.382813 206.148438 L 335.292969 202.015625 L 344 197.144531 L 352.332031 191.519531 L 360.105469 185.144531 L 367.128906 178.050781 L 373.203125 170.292969 L 378.152344 161.964844 L 381.808594 153.167969 L 384.058594 144.054688 L 384.816406 134.773438 L 384.058594 125.492188 L 381.808594 116.375 L 378.152344 107.582031 L 373.203125 99.25 L 367.128906 91.496094 L 360.105469 84.402344 L 352.332031 78.027344 L 344 72.402344 L 335.292969 67.53125 L 326.382813 63.398438 L 317.421875 59.964844 L 308.53125 57.191406 L 299.820313 55.019531 L 291.371094 53.398438 L 283.246094 52.265625 L 275.492188 51.566406 L 268.136719 51.242188 L 261.195313 51.242188 L 254.683594 51.523438 L 248.59375 52.042969 L 242.925781 52.761719 L 237.667969 53.644531 L 232.804688 54.664063 L 228.320313 55.792969 L 224.199219 57.011719 L 220.421875 58.296875 L 216.972656 59.636719 L 213.832031 61.015625 L 210.980469 62.421875 L 208.40625 63.84375 L 206.089844 65.273438 L 204.015625 66.703125 L 202.171875 68.128906 L 200.542969 69.542969 L 199.113281 70.945313 L 197.875 72.328125 L 196.816406 73.691406 L 195.925781 75.03125 L 195.191406 76.347656 L 194.605469 77.636719 L 194.164063 78.898438 L 193.851563 80.128906 L 193.664063 81.335938 L 193.597656 82.507813 L 193.640625 83.652344 L 193.789063 84.769531 L 194.039063 85.855469 L 194.386719 86.910156 L 194.820313 87.933594 L 195.339844 88.929688 L 195.9375 89.894531 L 196.617188 90.832031 L 197.367188 91.738281 L 198.183594 92.617188 L 199.070313 93.46875 L 200.019531 94.289063 L 201.023438 95.085938 L 202.089844 95.851563 L 203.207031 96.589844 L 204.375 97.304688 L 205.59375 97.992188 L 206.855469 98.652344 L 208.164063 99.285156 L 209.515625 99.894531 L 210.90625 100.476563 L 212.332031 101.035156 L 213.792969 101.566406 L 215.292969 102.078125 L 216.820313 102.5625 L 218.378906 103.023438 L 219.964844 103.457031 L 221.582031 103.871094 L 223.21875 104.261719 L 224.882813 104.628906 L 226.566406 104.96875 L 228.273438 105.289063 L 229.996094 105.589844 L 231.738281 105.863281 L 233.496094 106.117188 L 235.269531 106.347656 L 237.054688 106.554688 L 238.851563 106.738281 L 240.660156 106.902344 L 242.476563 107.046875 L 244.300781 107.164063 L 246.132813 107.261719 L 247.972656 107.339844 L 249.8125 107.394531 L 251.65625 107.425781 L 253.5 107.4375 L 255.34375 107.425781 L 257.1875 107.394531 L 259.027344 107.339844 L 260.867188 107.261719 L 262.699219 107.164063 L 264.523438 107.046875 L 266.339844 106.902344 L 268.148438 106.738281 L 269.945313 106.554688 L 271.730469 106.347656 L 273.503906 106.117188 L 275.261719 105.863281 L 277.003906 105.589844 L 278.726563 105.289063 L 280.433594 104.96875 L 282.117188 104.628906 L 283.78125 104.261719 L 285.417969 103.871094 L 287.035156 103.457031 L 288.621094 103.023438 L 290.179688 102.5625 L 291.707031 102.078125 L 293.207031 101.566406 L 294.667969 101.035156 L 296.09375 100.476563 L 297.484375 99.894531 L 298.835938 99.285156 L 300.144531 98.652344 L 301.40625 97.992188 L 302.625 97.304688 L 303.792969 96.589844 L 304.910156 95.851563 L 305.976563 95.085938 L 306.980469 94.289063 L 307.929688 93.46875 L 308.816406 92.617188 L 309.632813 91.738281 L 310.382813 90.832031 L 311.0625 89.894531 L 311.660156 88.929688 L 312.179688 87.933594 L 312.613281 86.910156 L 312.960938 85.855469 L 313.210938 84.769531 L 313.359375 83.652344 L 313.402344 82.507813 L 313.335938 81.335938 L 313.148438 80.128906 L 312.835938 78.898438 L 312.394531 77.636719 L 311.808594 76.347656 L 311.074219 75.03125 L 310.183594 73.691406 L 309.125 72.328125 L 307.886719 70.945313 L 306.457031 69.542969 L 304.828125 68.128906 L 302.984375 66.703125 L 300.910156 65.273438 L 298.59375 63.84375 L 296.019531 62.421875 L 293.167969 61.015625 L 290.027344 59.636719 L 286.578125 58.296875 L 282.800781 57.011719 L 278.679688 55.792969 L 274.195313 54.664063 L 269.332031 53.644531 L 264.074219 52.761719 L 258.40625 52.042969 L 252.316406 51.523438 L 245.804688 51.242188 L 238.863281 51.242188 L 231.507813 51.566406 L 223.753906 52.265625 L 215.628906 53.398438 L 207.179688 55.019531 L 198.46875 57.191406 L 189.578125 59.964844 L 180.617188 63.398438 L 171.707031 67.53125 L 163 72.402344 L 154.667969 78.027344 L 146.894531 84.402344 L 139.871094 91.496094 L 133.796875 99.25 L 128.847656 107.582031 L 125.191406 116.375 L 122.941406 125.492188 L 122.183594 134.773438 " transform="matrix(1,0,0,1,-74,-13)"/>
<path style=" stroke:none;fill-rule:evenodd;fill:rgb(0%,66.665649%,0%);fill-opacity:1;" d="M 248.5 137 C 248.5 136.070313 248.132813 135.179688 247.476563 134.523438 C 246.820313 133.867188 245.929688 133.5 245 133.5 C 244.070313 133.5 243.179688 133.867188 242.523438 134.523438 C 241.867188 135.179688 241.5 136.070313 241.5 137 C 241.5 137.929688 241.867188 138.820313 242.523438 139.476563 C 243.179688 140.132813 244.070313 140.5 245 140.5 C 245.929688 140.5 246.820313 140.132813 247.476563 139.476563 C 248.132813 138.820313 248.5 137.929688 248.5 137 Z "/>
</g>
</svg>
