<?xml version="1.0" encoding="UTF-8"?>
<svg xmlns="http://www.w3.org/2000/svg" xmlns:xlink="http://www.w3.org/1999/xlink" width="205pt" height="429pt" viewBox="0 0 205 429" version="1.1">
<g id="surface47">
<path style=" stroke:none;fill-rule:evenodd;fill:rgb(0%,66.665649%,0%);fill-opacity:1;" d="M 13.5 288 C 13.5 287.070313 13.132813 286.179688 12.476563 285.523438 C 11.820313 284.867188 10.929688 284.5 10 284.5 C 9.070313 284.5 8.179688 284.867188 7.523438 285.523438 C 6.867188 286.179688 6.5 287.070313 6.5 288 C 6.5 288.929688 6.867188 289.820313 7.523438 290.476563 C 8.179688 291.132813 9.070313 291.5 10 291.5 C 10.929688 291.5 11.820313 291.132813 12.476563 290.476563 C 13.132813 289.820313 13.5 288.929688 13.5 288 Z "/>
<path style=" stroke:none;fill-rule:evenodd;fill:rgb(0%,66.665649%,0%);fill-opacity:1;" d="M 76.5 14 C 76.5 13.070313 76.132813 12.179688 75.476563 11.523438 C 74.820313 10.867188 73.929688 10.5 73 10.5 C 72.070313 10.5 71.179688 10.867188 70.523438 11.523438 C 69.867188 12.179688 69.5 13.070313 69.5 14 C 69.5 14.929688 69.867188 15.820313 70.523438 16.476563 C 71.179688 17.132813 72.070313 17.5 73 17.5 C 73.929688 17.5 74.820313 17.132813 75.476563 16.476563 C 76.132813 15.820313 76.5 14.929688 76.5 14 Z "/>
<path style=" stroke:none;fill-rule:evenodd;fill:rgb(0%,66.665649%,0%);fill-opacity:1;" d="M 204.5 248 C 204.5 247.070313 204.132813 246.179688 203.476563 245.523438 C 202.820313 244.867188 201.929688 244.5 201 244.5 C 200.070313 244.5 199.179688 244.867188 198.523438 245.523438 C 197.867188 246.179688 197.5 247.070313 197.5 248 C 197.5 248.929688 197.867188 249.820313 198.523438 250.476563 C 199.179688 251.132813 200.070313 251.5 201 251.5 C 201.929688 251.5 202.820313 251.132813 203.476563 250.476563 C 204.132813 249.820313 204.5 248.929688 204.5 248 Z "/>
<path style="fill:none;stroke-width:2;stroke-linecap:square;stroke-linejoin:miter;stroke:rgb(0%,66.665649%,0%);stroke-opacity:1;stroke-miterlimit:3.25;" d="M 76.101563 292.851563 L 139.410156 18.753906 L 267.132813 252.691406 Z " transform="matrix(1,0,0,1,-66,-5)"/>
<path style="fill:none;stroke-width:2;stroke-linecap:square;stroke-linejoin:miter;stroke:rgb(0%,66.665649%,0%);stroke-opacity:1;stroke-miterlimit:3.25;" d="M 137.242188 220.5 L 137.507813 222.429688 L 138.296875 224.316406 L 139.582031 226.121094 L 141.316406 227.8125 L 143.445313 229.363281 L 145.90625 230.75 L 148.632813 231.957031 L 151.546875 232.980469 L 154.589844 233.816406 L 157.703125 234.46875 L 160.828125 234.949219 L 163.925781 235.265625 L 166.953125 235.433594 L 169.882813 235.46875 L 172.695313 235.382813 L 175.375 235.191406 L 177.90625 234.90625 L 180.285156 234.542969 L 182.511719 234.113281 L 184.582031 233.625 L 186.496094 233.09375 L 188.265625 232.519531 L 189.890625 231.914063 L 191.378906 231.285156 L 192.730469 230.636719 L 193.957031 229.972656 L 195.066406 229.300781 L 196.0625 228.621094 L 196.949219 227.9375 L 197.734375 227.253906 L 198.425781 226.570313 L 199.027344 225.890625 L 199.542969 225.214844 L 199.980469 224.546875 L 200.34375 223.886719 L 200.636719 223.230469 L 200.859375 222.585938 L 201.019531 221.953125 L 201.121094 221.328125 L 201.167969 220.714844 L 201.160156 220.113281 L 201.101563 219.519531 L 201 218.941406 L 200.847656 218.375 L 200.65625 217.820313 L 200.421875 217.273438 L 200.148438 216.742188 L 199.839844 216.222656 L 199.496094 215.71875 L 199.121094 215.222656 L 198.714844 214.742188 L 198.273438 214.273438 L 197.808594 213.816406 L 197.316406 213.371094 L 196.796875 212.9375 L 196.25 212.519531 L 195.683594 212.113281 L 195.09375 211.71875 L 194.480469 211.335938 L 193.851563 210.964844 L 193.199219 210.605469 L 192.527344 210.261719 L 191.839844 209.929688 L 191.136719 209.605469 L 190.417969 209.300781 L 189.679688 209.003906 L 188.929688 208.71875 L 188.167969 208.445313 L 187.390625 208.1875 L 186.601563 207.9375 L 185.800781 207.703125 L 184.988281 207.480469 L 184.167969 207.269531 L 183.335938 207.070313 L 182.496094 206.882813 L 181.648438 206.707031 L 180.789063 206.546875 L 179.925781 206.394531 L 179.054688 206.257813 L 178.179688 206.128906 L 177.296875 206.015625 L 176.410156 205.914063 L 175.519531 205.824219 L 174.625 205.746094 L 173.726563 205.679688 L 172.828125 205.625 L 171.921875 205.582031 L 171.019531 205.550781 L 170.113281 205.535156 L 169.207031 205.527344 L 168.300781 205.535156 L 167.394531 205.550781 L 166.492188 205.582031 L 165.585938 205.625 L 164.6875 205.679688 L 163.789063 205.746094 L 162.894531 205.824219 L 162.003906 205.914063 L 161.117188 206.015625 L 160.234375 206.128906 L 159.359375 206.257813 L 158.488281 206.394531 L 157.625 206.546875 L 156.765625 206.707031 L 155.917969 206.882813 L 155.078125 207.070313 L 154.246094 207.269531 L 153.425781 207.480469 L 152.613281 207.703125 L 151.8125 207.9375 L 151.023438 208.1875 L 150.246094 208.445313 L 149.484375 208.71875 L 148.734375 209.003906 L 147.996094 209.300781 L 147.277344 209.605469 L 146.574219 209.929688 L 145.886719 210.261719 L 145.214844 210.605469 L 144.5625 210.964844 L 143.933594 211.335938 L 143.320313 211.71875 L 142.730469 212.113281 L 142.164063 212.519531 L 141.617188 212.9375 L 141.097656 213.371094 L 140.605469 213.816406 L 140.136719 214.273438 L 139.699219 214.742188 L 139.292969 215.222656 L 138.917969 215.71875 L 138.574219 216.222656 L 138.265625 216.742188 L 137.992188 217.273438 L 137.757813 217.820313 L 137.566406 218.375 L 137.414063 218.941406 L 137.308594 219.519531 L 137.253906 220.113281 L 137.246094 220.714844 L 137.289063 221.328125 L 137.394531 221.953125 L 137.554688 222.585938 L 137.777344 223.230469 L 138.070313 223.886719 L 138.433594 224.546875 L 138.867188 225.214844 L 139.386719 225.890625 L 139.988281 226.570313 L 140.679688 227.253906 L 141.464844 227.9375 L 142.351563 228.621094 L 143.347656 229.300781 L 144.457031 229.972656 L 145.683594 230.636719 L 147.035156 231.285156 L 148.523438 231.914063 L 150.148438 232.519531 L 151.914063 233.09375 L 153.832031 233.625 L 155.902344 234.113281 L 158.128906 234.542969 L 160.507813 234.90625 L 163.039063 235.191406 L 165.71875 235.382813 L 168.53125 235.46875 L 171.460938 235.433594 L 174.488281 235.265625 L 177.585938 234.949219 L 180.710938 234.46875 L 183.820313 233.816406 L 186.867188 232.980469 L 189.78125 231.957031 L 192.503906 230.75 L 194.96875 229.363281 L 197.097656 227.8125 L 198.832031 226.121094 L 200.117188 224.316406 L 200.90625 222.429688 L 201.171875 220.5 L 200.90625 218.570313 L 200.117188 216.683594 L 198.832031 214.878906 L 197.097656 213.1875 L 194.96875 211.636719 L 192.503906 210.25 L 189.78125 209.042969 L 186.867188 208.019531 L 183.820313 207.183594 L 180.710938 206.53125 L 177.585938 206.050781 L 174.488281 205.734375 L 171.460938 205.566406 L 168.53125 205.53125 L 165.71875 205.617188 L 163.039063 205.808594 L 160.507813 206.09375 L 158.128906 206.457031 L 155.902344 206.886719 L 153.832031 207.375 L 151.914063 207.90625 L 150.148438 208.480469 L 148.523438 209.085938 L 147.035156 209.714844 L 145.683594 210.363281 L 144.457031 211.027344 L 143.347656 211.699219 L 142.351563 212.378906 L 141.464844 213.0625 L 140.679688 213.746094 L 139.988281 214.429688 L 139.386719 215.109375 L 138.867188 215.785156 L 138.433594 216.453125 L 138.070313 217.113281 L 137.777344 217.769531 L 137.554688 218.414063 L 137.394531 219.046875 L 137.289063 219.671875 L 137.246094 220.285156 L 137.253906 220.886719 L 137.308594 221.480469 L 137.414063 222.058594 L 137.566406 222.625 L 137.757813 223.179688 L 137.992188 223.726563 L 138.265625 224.257813 L 138.574219 224.777344 L 138.917969 225.28125 L 139.292969 225.777344 L 139.699219 226.257813 L 140.136719 226.726563 L 140.605469 227.183594 L 141.097656 227.628906 L 141.617188 228.0625 L 142.164063 228.480469 L 142.730469 228.886719 L 143.320313 229.28125 L 143.933594 229.664063 L 144.5625 230.035156 L 145.214844 230.394531 L 145.886719 230.738281 L 146.574219 231.070313 L 147.277344 231.394531 L 147.996094 231.699219 L 148.734375 231.996094 L 149.484375 232.28125 L 150.246094 232.554688 L 151.023438 232.8125 L 151.8125 233.0625 L 152.613281 233.296875 L 153.425781 233.519531 L 154.246094 233.730469 L 155.078125 233.929688 L 155.917969 234.117188 L 156.765625 234.292969 L 157.625 234.453125 L 158.488281 234.605469 L 159.359375 234.742188 L 160.234375 234.871094 L 161.117188 234.984375 L 162.003906 235.085938 L 162.894531 235.175781 L 163.789063 235.253906 L 164.6875 235.320313 L 165.585938 235.375 L 166.492188 235.417969 L 167.394531 235.449219 L 168.300781 235.464844 L 169.207031 235.472656 L 170.113281 235.464844 L 171.019531 235.449219 L 171.921875 235.417969 L 172.828125 235.375 L 173.726563 235.320313 L 174.625 235.253906 L 175.519531 235.175781 L 176.410156 235.085938 L 177.296875 234.984375 L 178.179688 234.871094 L 179.054688 234.742188 L 179.925781 234.605469 L 180.789063 234.453125 L 181.648438 234.292969 L 182.496094 234.117188 L 183.335938 233.929688 L 184.167969 233.730469 L 184.988281 233.519531 L 185.800781 233.296875 L 186.601563 233.0625 L 187.390625 232.8125 L 188.167969 232.554688 L 188.929688 232.28125 L 189.679688 231.996094 L 190.417969 231.699219 L 191.136719 231.394531 L 191.839844 231.070313 L 192.527344 230.738281 L 193.199219 230.394531 L 193.851563 230.035156 L 194.480469 229.664063 L 195.09375 229.28125 L 195.683594 228.886719 L 196.25 228.480469 L 196.796875 228.0625 L 197.316406 227.628906 L 197.808594 227.183594 L 198.273438 226.726563 L 198.714844 226.257813 L 199.121094 225.777344 L 199.496094 225.28125 L 199.839844 224.777344 L 200.148438 224.257813 L 200.421875 223.726563 L 200.65625 223.179688 L 200.847656 222.625 L 201 222.058594 L 201.101563 221.480469 L 201.160156 220.886719 L 201.167969 220.285156 L 201.121094 219.671875 L 201.019531 219.046875 L 200.859375 218.414063 L 200.636719 217.769531 L 200.34375 217.113281 L 199.980469 216.453125 L 199.542969 215.785156 L 199.027344 215.109375 L 198.425781 214.429688 L 197.734375 213.746094 L 196.949219 213.0625 L 196.0625 212.378906 L 195.066406 211.699219 L 193.957031 211.027344 L 192.730469 210.363281 L 191.378906 209.714844 L 189.890625 209.085938 L 188.265625 208.480469 L 186.496094 207.90625 L 184.582031 207.375 L 182.511719 206.886719 L 180.285156 206.457031 L 177.90625 206.09375 L 175.375 205.808594 L 172.695313 205.617188 L 169.882813 205.53125 L 166.953125 205.566406 L 163.925781 205.734375 L 160.828125 206.050781 L 157.703125 206.53125 L 154.589844 207.183594 L 151.546875 208.019531 L 148.632813 209.042969 L 145.90625 210.25 L 143.445313 211.636719 L 141.316406 213.1875 L 139.582031 214.878906 L 138.296875 216.683594 L 137.507813 218.570313 " transform="matrix(1,0,0,1,-66,-5)"/>
<path style="fill:none;stroke-width:2;stroke-linecap:square;stroke-linejoin:miter;stroke:rgb(0%,66.665649%,0%);stroke-opacity:1;stroke-dasharray:4,4;stroke-miterlimit:3.25;" d="M 70.128906 220.5 L 70.144531 224.191406 L 70.1875 227.882813 L 70.265625 231.570313 L 70.371094 235.257813 L 70.503906 238.9375 L 70.671875 242.613281 L 70.867188 246.28125 L 71.09375 249.941406 L 71.347656 253.589844 L 71.632813 257.234375 L 71.949219 260.863281 L 72.292969 264.480469 L 72.667969 268.085938 L 73.070313 271.675781 L 73.503906 275.25 L 73.964844 278.808594 L 74.457031 282.347656 L 74.976563 285.867188 L 75.527344 289.371094 L 76.101563 292.851563 L 76.710938 296.308594 L 77.34375 299.742188 L 78.003906 303.152344 L 78.695313 306.539063 L 79.410156 309.898438 L 80.15625 313.230469 L 80.925781 316.535156 L 81.726563 319.808594 L 82.550781 323.054688 L 83.402344 326.269531 L 84.28125 329.449219 L 85.183594 332.597656 L 86.113281 335.710938 L 87.066406 338.789063 L 88.046875 341.832031 L 89.050781 344.839844 L 90.078125 347.804688 L 91.132813 350.734375 L 92.207031 353.625 L 93.308594 356.472656 L 94.429688 359.28125 L 95.578125 362.046875 L 96.746094 364.769531 L 97.9375 367.445313 L 99.148438 370.078125 L 100.382813 372.667969 L 101.636719 375.207031 L 102.910156 377.703125 L 104.207031 380.148438 L 105.519531 382.546875 L 106.855469 384.894531 L 108.207031 387.191406 L 109.578125 389.441406 L 110.96875 391.636719 L 112.378906 393.78125 L 113.804688 395.871094 L 115.246094 397.910156 L 116.703125 399.894531 L 118.175781 401.824219 L 119.667969 403.695313 L 121.171875 405.515625 L 122.691406 407.277344 L 124.226563 408.980469 L 125.773438 410.628906 L 127.335938 412.21875 L 128.90625 413.75 L 130.492188 415.222656 L 132.089844 416.632813 L 133.699219 417.988281 L 135.320313 419.28125 L 136.949219 420.511719 L 138.589844 421.683594 L 140.238281 422.792969 L 141.898438 423.84375 L 143.5625 424.828125 L 145.238281 425.753906 L 146.917969 426.613281 L 148.605469 427.414063 L 150.300781 428.148438 L 152.003906 428.824219 L 153.707031 429.433594 L 155.417969 429.976563 L 157.132813 430.460938 L 158.851563 430.878906 L 160.570313 431.230469 L 162.296875 431.523438 L 164.019531 431.746094 L 165.75 431.90625 L 167.476563 432.003906 L 169.207031 432.035156 L 170.9375 432.003906 L 172.664063 431.90625 L 174.390625 431.746094 L 176.117188 431.523438 L 177.84375 431.230469 L 179.5625 430.878906 L 181.28125 430.460938 L 182.996094 429.976563 L 184.707031 429.433594 L 186.410156 428.824219 L 188.113281 428.148438 L 189.804688 427.414063 L 191.496094 426.613281 L 193.175781 425.753906 L 194.851563 424.828125 L 196.515625 423.84375 L 198.175781 422.792969 L 199.824219 421.683594 L 201.464844 420.511719 L 203.09375 419.28125 L 204.714844 417.988281 L 206.324219 416.632813 L 207.917969 415.222656 L 209.503906 413.75 L 211.078125 412.21875 L 212.640625 410.628906 L 214.1875 408.980469 L 215.722656 407.277344 L 217.242188 405.515625 L 218.746094 403.695313 L 220.234375 401.824219 L 221.710938 399.894531 L 223.167969 397.910156 L 224.609375 395.871094 L 226.035156 393.78125 L 227.445313 391.636719 L 228.832031 389.441406 L 230.207031 387.191406 L 231.558594 384.894531 L 232.894531 382.546875 L 234.207031 380.148438 L 235.503906 377.703125 L 236.777344 375.207031 L 238.03125 372.667969 L 239.265625 370.078125 L 240.476563 367.445313 L 241.667969 364.769531 L 242.835938 362.046875 L 243.980469 359.28125 L 245.105469 356.472656 L 246.207031 353.625 L 247.28125 350.734375 L 248.335938 347.804688 L 249.363281 344.839844 L 250.367188 341.832031 L 251.347656 338.789063 L 252.300781 335.710938 L 253.230469 332.597656 L 254.132813 329.449219 L 255.011719 326.269531 L 255.863281 323.054688 L 256.6875 319.808594 L 257.488281 316.535156 L 258.257813 313.230469 L 259.003906 309.898438 L 259.71875 306.539063 L 260.410156 303.152344 L 261.070313 299.742188 L 261.703125 296.308594 L 262.308594 292.851563 L 262.886719 289.371094 L 263.4375 285.867188 L 263.957031 282.347656 L 264.449219 278.808594 L 264.910156 275.25 L 265.34375 271.675781 L 265.746094 268.085938 L 266.121094 264.480469 L 266.464844 260.863281 L 266.78125 257.234375 L 267.066406 253.589844 L 267.320313 249.941406 L 267.546875 246.28125 L 267.742188 242.613281 L 267.910156 238.9375 L 268.042969 235.257813 L 268.148438 231.570313 L 268.226563 227.882813 L 268.269531 224.191406 L 268.285156 220.5 L 268.269531 216.808594 L 268.226563 213.117188 L 268.148438 209.429688 L 268.042969 205.742188 L 267.910156 202.0625 L 267.742188 198.386719 L 267.546875 194.71875 L 267.320313 191.058594 L 267.066406 187.410156 L 266.78125 183.765625 L 266.464844 180.136719 L 266.121094 176.519531 L 265.746094 172.914063 L 265.34375 169.324219 L 264.910156 165.75 L 264.449219 162.191406 L 263.957031 158.652344 L 263.4375 155.132813 L 262.886719 151.628906 L 262.308594 148.148438 L 261.703125 144.691406 L 261.070313 141.257813 L 260.410156 137.847656 L 259.71875 134.460938 L 259.003906 131.101563 L 258.257813 127.769531 L 257.488281 124.464844 L 256.6875 121.191406 L 255.863281 117.945313 L 255.011719 114.730469 L 254.132813 111.550781 L 253.230469 108.402344 L 252.300781 105.289063 L 251.347656 102.210938 L 250.367188 99.167969 L 249.363281 96.160156 L 248.335938 93.195313 L 247.28125 90.265625 L 246.207031 87.375 L 245.105469 84.527344 L 243.980469 81.71875 L 242.835938 78.953125 L 241.667969 76.230469 L 240.476563 73.554688 L 239.265625 70.921875 L 238.03125 68.332031 L 236.777344 65.792969 L 235.503906 63.296875 L 234.207031 60.851563 L 232.894531 58.453125 L 231.558594 56.105469 L 230.207031 53.808594 L 228.832031 51.558594 L 227.445313 49.363281 L 226.035156 47.21875 L 224.609375 45.128906 L 223.167969 43.089844 L 221.710938 41.105469 L 220.234375 39.175781 L 218.746094 37.304688 L 217.242188 35.484375 L 215.722656 33.722656 L 214.1875 32.019531 L 212.640625 30.371094 L 211.078125 28.78125 L 209.503906 27.25 L 207.917969 25.777344 L 206.324219 24.367188 L 204.714844 23.011719 L 203.09375 21.71875 L 201.464844 20.488281 L 199.824219 19.316406 L 198.175781 18.207031 L 196.515625 17.15625 L 194.851563 16.171875 L 193.175781 15.246094 L 191.496094 14.386719 L 189.804688 13.585938 L 188.113281 12.851563 L 186.410156 12.175781 L 184.707031 11.566406 L 182.996094 11.023438 L 181.28125 10.539063 L 179.5625 10.121094 L 177.84375 9.769531 L 176.117188 9.476563 L 174.390625 9.253906 L 172.664063 9.09375 L 170.9375 8.996094 L 169.207031 8.964844 L 167.476563 8.996094 L 165.75 9.09375 L 164.019531 9.253906 L 162.296875 9.476563 L 160.570313 9.769531 L 158.851563 10.121094 L 157.132813 10.539063 L 155.417969 11.023438 L 153.707031 11.566406 L 152.003906 12.175781 L 150.300781 12.851563 L 148.605469 13.585938 L 146.917969 14.386719 L 145.238281 15.246094 L 143.5625 16.171875 L 141.898438 17.15625 L 140.238281 18.207031 L 138.589844 19.316406 L 136.949219 20.488281 L 135.320313 21.71875 L 133.699219 23.011719 L 132.089844 24.367188 L 130.492188 25.777344 L 128.90625 27.25 L 127.335938 28.78125 L 125.773438 30.371094 L 124.226563 32.019531 L 122.691406 33.722656 L 121.171875 35.484375 L 119.667969 37.304688 L 118.175781 39.175781 L 116.703125 41.105469 L 115.246094 43.089844 L 113.804688 45.128906 L 112.378906 47.21875 L 110.96875 49.363281 L 109.578125 51.558594 L 108.207031 53.808594 L 106.855469 56.105469 L 105.519531 58.453125 L 104.207031 60.851563 L 102.910156 63.296875 L 101.636719 65.792969 L 100.382813 68.332031 L 99.148438 70.921875 L 97.9375 73.554688 L 96.746094 76.230469 L 95.578125 78.953125 L 94.429688 81.71875 L 93.308594 84.527344 L 92.207031 87.375 L 91.132813 90.265625 L 90.078125 93.195313 L 89.050781 96.160156 L 88.046875 99.167969 L 87.066406 102.210938 L 86.113281 105.289063 L 85.183594 108.402344 L 84.28125 111.550781 L 83.402344 114.730469 L 82.550781 117.945313 L 81.726563 121.191406 L 80.925781 124.464844 L 80.15625 127.769531 L 79.410156 131.101563 L 78.695313 134.460938 L 78.003906 137.847656 L 77.34375 141.257813 L 76.710938 144.691406 L 76.101563 148.148438 L 75.527344 151.628906 L 74.976563 155.132813 L 74.457031 158.652344 L 73.964844 162.191406 L 73.503906 165.75 L 73.070313 169.324219 L 72.667969 172.914063 L 72.292969 176.519531 L 71.949219 180.136719 L 71.632813 183.765625 L 71.347656 187.410156 L 71.09375 191.058594 L 70.867188 194.71875 L 70.671875 198.386719 L 70.503906 202.0625 L 70.371094 205.742188 L 70.265625 209.429688 L 70.1875 213.117188 L 70.144531 216.808594 " transform="matrix(1,0,0,1,-66,-5)"/>
<path style="fill:none;stroke-width:2;stroke-linecap:square;stroke-linejoin:miter;stroke:rgb(0%,0%,0%);stroke-opacity:1;stroke-miterlimit:3.25;" d="M 244.503906 221 C 244.503906 207.648438 236.546875 194.847656 222.386719 185.40625 C 208.230469 175.96875 189.023438 170.664063 169 170.664063 C 148.976563 170.664063 129.769531 175.96875 115.613281 185.40625 C 101.453125 194.847656 93.496094 207.648438 93.496094 221 C 93.496094 234.351563 101.453125 247.152344 115.613281 256.59375 C 129.769531 266.03125 148.976563 271.335938 169 271.335938 C 189.023438 271.335938 208.230469 266.03125 222.386719 256.59375 C 236.546875 247.152344 244.503906 234.351563 244.503906 221 Z " transform="matrix(1,0,0,1,-66,-5)"/>
<path style="fill:none;stroke-width:1;stroke-linecap:square;stroke-linejoin:miter;stroke:rgb(0%,0%,0%);stroke-opacity:1;stroke-dasharray:4,4;stroke-miterlimit:3.25;" d="M 93.703125 220.5 L 244.710938 220.5 " transform="matrix(1,0,0,1,-66,-5)"/>
<path style="fill:none;stroke-width:1;stroke-linecap:square;stroke-linejoin:miter;stroke:rgb(0%,0%,0%);stroke-opacity:1;stroke-dasharray:4,4;stroke-miterlimit:3.25;" d="M 169.207031 270.835938 L 169.207031 170.164063 " transform="matrix(1,0,0,1,-66,-5)"/>
<path style=" stroke:none;fill-rule:evenodd;fill:rgb(0%,0%,0%);fill-opacity:1;" d="M 106.5 216 C 106.5 215.070313 106.132813 214.179688 105.476563 213.523438 C 104.820313 212.867188 103.929688 212.5 103 212.5 C 102.070313 212.5 101.179688 212.867188 100.523438 213.523438 C 99.867188 214.179688 99.5 215.070313 99.5 216 C 99.5 216.929688 99.867188 217.820313 100.523438 218.476563 C 101.179688 219.132813 102.070313 219.5 103 219.5 C 103.929688 219.5 104.820313 219.132813 105.476563 218.476563 C 106.132813 217.820313 106.5 216.929688 106.5 216 Z "/>
<path style="fill:none;stroke-width:2;stroke-linecap:square;stroke-linejoin:miter;stroke:rgb(0%,0%,99.998474%);stroke-opacity:1;stroke-miterlimit:3.25;" d="M 240.15625 203.285156 L 191.914063 268.503906 L 94.582031 212.839844 Z " transform="matrix(1,0,0,1,-66,-5)"/>
<path style=" stroke:none;fill-rule:evenodd;fill:rgb(0%,0%,0%);fill-opacity:1;" d="M 177.5 198 C 177.5 197.070313 177.132813 196.179688 176.476563 195.523438 C 175.820313 194.867188 174.929688 194.5 174 194.5 C 173.070313 194.5 172.179688 194.867188 171.523438 195.523438 C 170.867188 196.179688 170.5 197.070313 170.5 198 C 170.5 198.929688 170.867188 199.820313 171.523438 200.476563 C 172.179688 201.132813 173.070313 201.5 174 201.5 C 174.929688 201.5 175.820313 201.132813 176.476563 200.476563 C 177.132813 199.820313 177.5 198.929688 177.5 198 Z "/>
<path style=" stroke:none;fill-rule:evenodd;fill:rgb(0%,0%,0%);fill-opacity:1;" d="M 129.5 264 C 129.5 263.070313 129.132813 262.179688 128.476563 261.523438 C 127.820313 260.867188 126.929688 260.5 126 260.5 C 125.070313 260.5 124.179688 260.867188 123.523438 261.523438 C 122.867188 262.179688 122.5 263.070313 122.5 264 C 122.5 264.929688 122.867188 265.820313 123.523438 266.476563 C 124.179688 267.132813 125.070313 267.5 126 267.5 C 126.929688 267.5 127.820313 267.132813 128.476563 266.476563 C 129.132813 265.820313 129.5 264.929688 129.5 264 Z "/>
<path style=" stroke:none;fill-rule:evenodd;fill:rgb(0%,0%,0%);fill-opacity:1;" d="M 32.5 208 C 32.5 207.070313 32.132813 206.179688 31.476563 205.523438 C 30.820313 204.867188 29.929688 204.5 29 204.5 C 28.070313 204.5 27.179688 204.867188 26.523438 205.523438 C 25.867188 206.179688 25.5 207.070313 25.5 208 C 25.5 208.929688 25.867188 209.820313 26.523438 210.476563 C 27.179688 211.132813 28.070313 211.5 29 211.5 C 29.929688 211.5 30.820313 211.132813 31.476563 210.476563 C 32.132813 209.820313 32.5 208.929688 32.5 208 Z "/>
<path style=" stroke:none;fill-rule:evenodd;fill:rgb(0%,66.665649%,0%);fill-opacity:1;" d="M 122.5 229 C 122.5 228.070313 122.132813 227.179688 121.476563 226.523438 C 120.820313 225.867188 119.929688 225.5 119 225.5 C 118.070313 225.5 117.179688 225.867188 116.523438 226.523438 C 115.867188 227.179688 115.5 228.070313 115.5 229 C 115.5 229.929688 115.867188 230.820313 116.523438 231.476563 C 117.179688 232.132813 118.070313 232.5 119 232.5 C 119.929688 232.5 120.820313 232.132813 121.476563 231.476563 C 122.132813 230.820313 122.5 229.929688 122.5 229 Z "/>
<path style="fill:none;stroke-width:1;stroke-linecap:square;stroke-linejoin:miter;stroke:rgb(0%,66.665649%,0%);stroke-opacity:1;stroke-dasharray:4,4;stroke-miterlimit:3.25;" d="M 240.15625 203.285156 L 184.582031 233.625 " transform="matrix(1,0,0,1,-66,-5)"/>
<path style="fill:none;stroke-width:1;stroke-linecap:square;stroke-linejoin:miter;stroke:rgb(0%,66.665649%,0%);stroke-opacity:1;stroke-dasharray:4,4;stroke-miterlimit:3.25;" d="M 191.914063 268.503906 L 184.582031 233.625 " transform="matrix(1,0,0,1,-66,-5)"/>
<path style="fill:none;stroke-width:1;stroke-linecap:square;stroke-linejoin:miter;stroke:rgb(0%,66.665649%,0%);stroke-opacity:1;stroke-dasharray:4,4;stroke-miterlimit:3.25;" d="M 94.582031 212.839844 L 184.582031 233.625 " transform="matrix(1,0,0,1,-66,-5)"/>
</g>
</svg>
