<?xml version="1.0" encoding="UTF-8"?>
<svg xmlns="http://www.w3.org/2000/svg" xmlns:xlink="http://www.w3.org/1999/xlink" width="1152pt" height="447pt" viewBox="0 0 1152 447" version="1.1">
<g id="surface214">
<path style="fill:none;stroke-width:2;stroke-linecap:square;stroke-linejoin:miter;stroke:rgb(0%,0%,0%);stroke-opacity:1;stroke-miterlimit:3.25;" d="M 530.789063 241 C 530.789063 196.128906 504.050781 153.09375 456.453125 121.363281 C 408.859375 89.632813 344.308594 71.808594 277 71.808594 C 209.691406 71.808594 145.140625 89.632813 97.546875 121.363281 C 49.949219 153.09375 23.210938 196.128906 23.210938 241 C 23.210938 285.871094 49.949219 328.90625 97.546875 360.636719 C 145.140625 392.367188 209.691406 410.191406 277 410.191406 C 344.308594 410.191406 408.859375 392.367188 456.453125 360.636719 C 504.050781 328.90625 530.789063 285.871094 530.789063 241 Z "/>
<path style="fill:none;stroke-width:2;stroke-linecap:square;stroke-linejoin:miter;stroke:rgb(0%,66.665649%,0%);stroke-opacity:1;stroke-miterlimit:3.25;" d="M 563.5 221 L 428.097656 442.800781 L 39.402344 373.507813 L 11.5 151.34375 L 351.578125 11.539063 Z "/>
<path style="fill:none;stroke-width:2;stroke-linecap:square;stroke-linejoin:miter;stroke:rgb(0%,0%,99.998474%);stroke-opacity:1;stroke-miterlimit:3.25;" d="M 487.8125 146.191406 L 512.476563 304.578125 L 211.847656 404.25 L 24.507813 254.917969 L 144.207031 96.789063 Z "/>
<path style=" stroke:none;fill-rule:evenodd;fill:rgb(0%,0%,99.998474%);fill-opacity:1;" d="M 491.5 146 C 491.5 145.070313 491.132813 144.179688 490.476563 143.523438 C 489.820313 142.867188 488.929688 142.5 488 142.5 C 487.070313 142.5 486.179688 142.867188 485.523438 143.523438 C 484.867188 144.179688 484.5 145.070313 484.5 146 C 484.5 146.929688 484.867188 147.820313 485.523438 148.476563 C 486.179688 149.132813 487.070313 149.5 488 149.5 C 488.929688 149.5 489.820313 149.132813 490.476563 148.476563 C 491.132813 147.820313 491.5 146.929688 491.5 146 Z "/>
<path style=" stroke:none;fill-rule:evenodd;fill:rgb(0%,0%,99.998474%);fill-opacity:1;" d="M 515.5 305 C 515.5 304.070313 515.132813 303.179688 514.476563 302.523438 C 513.820313 301.867188 512.929688 301.5 512 301.5 C 511.070313 301.5 510.179688 301.867188 509.523438 302.523438 C 508.867188 303.179688 508.5 304.070313 508.5 305 C 508.5 305.929688 508.867188 306.820313 509.523438 307.476563 C 510.179688 308.132813 511.070313 308.5 512 308.5 C 512.929688 308.5 513.820313 308.132813 514.476563 307.476563 C 515.132813 306.820313 515.5 305.929688 515.5 305 Z "/>
<path style=" stroke:none;fill-rule:evenodd;fill:rgb(0%,0%,99.998474%);fill-opacity:1;" d="M 215.5 404 C 215.5 403.070313 215.132813 402.179688 214.476563 401.523438 C 213.820313 400.867188 212.929688 400.5 212 400.5 C 211.070313 400.5 210.179688 400.867188 209.523438 401.523438 C 208.867188 402.179688 208.5 403.070313 208.5 404 C 208.5 404.929688 208.867188 405.820313 209.523438 406.476563 C 210.179688 407.132813 211.070313 407.5 212 407.5 C 212.929688 407.5 213.820313 407.132813 214.476563 406.476563 C 215.132813 405.820313 215.5 404.929688 215.5 404 Z "/>
<path style=" stroke:none;fill-rule:evenodd;fill:rgb(0%,0%,99.998474%);fill-opacity:1;" d="M 28.5 255 C 28.5 254.070313 28.132813 253.179688 27.476563 252.523438 C 26.820313 251.867188 25.929688 251.5 25 251.5 C 24.070313 251.5 23.179688 251.867188 22.523438 252.523438 C 21.867188 253.179688 21.5 254.070313 21.5 255 C 21.5 255.929688 21.867188 256.820313 22.523438 257.476563 C 23.179688 258.132813 24.070313 258.5 25 258.5 C 25.929688 258.5 26.820313 258.132813 27.476563 257.476563 C 28.132813 256.820313 28.5 255.929688 28.5 255 Z "/>
<path style=" stroke:none;fill-rule:evenodd;fill:rgb(0%,0%,99.998474%);fill-opacity:1;" d="M 147.5 97 C 147.5 96.070313 147.132813 95.179688 146.476563 94.523438 C 145.820313 93.867188 144.929688 93.5 144 93.5 C 143.070313 93.5 142.179688 93.867188 141.523438 94.523438 C 140.867188 95.179688 140.5 96.070313 140.5 97 C 140.5 97.929688 140.867188 98.820313 141.523438 99.476563 C 142.179688 100.132813 143.070313 100.5 144 100.5 C 144.929688 100.5 145.820313 100.132813 146.476563 99.476563 C 147.132813 98.820313 147.5 97.929688 147.5 97 Z "/>
<path style=" stroke:none;fill-rule:evenodd;fill:rgb(0%,66.665649%,0%);fill-opacity:1;" d="M 566.5 221 C 566.5 220.070313 566.132813 219.179688 565.476563 218.523438 C 564.820313 217.867188 563.929688 217.5 563 217.5 C 562.070313 217.5 561.179688 217.867188 560.523438 218.523438 C 559.867188 219.179688 559.5 220.070313 559.5 221 C 559.5 221.929688 559.867188 222.820313 560.523438 223.476563 C 561.179688 224.132813 562.070313 224.5 563 224.5 C 563.929688 224.5 564.820313 224.132813 565.476563 223.476563 C 566.132813 222.820313 566.5 221.929688 566.5 221 Z "/>
<path style=" stroke:none;fill-rule:evenodd;fill:rgb(0%,66.665649%,0%);fill-opacity:1;" d="M 431.5 443 C 431.5 442.070313 431.132813 441.179688 430.476563 440.523438 C 429.820313 439.867188 428.929688 439.5 428 439.5 C 427.070313 439.5 426.179688 439.867188 425.523438 440.523438 C 424.867188 441.179688 424.5 442.070313 424.5 443 C 424.5 443.929688 424.867188 444.820313 425.523438 445.476563 C 426.179688 446.132813 427.070313 446.5 428 446.5 C 428.929688 446.5 429.820313 446.132813 430.476563 445.476563 C 431.132813 444.820313 431.5 443.929688 431.5 443 Z "/>
<path style=" stroke:none;fill-rule:evenodd;fill:rgb(0%,66.665649%,0%);fill-opacity:1;" d="M 42.5 374 C 42.5 373.070313 42.132813 372.179688 41.476563 371.523438 C 40.820313 370.867188 39.929688 370.5 39 370.5 C 38.070313 370.5 37.179688 370.867188 36.523438 371.523438 C 35.867188 372.179688 35.5 373.070313 35.5 374 C 35.5 374.929688 35.867188 375.820313 36.523438 376.476563 C 37.179688 377.132813 38.070313 377.5 39 377.5 C 39.929688 377.5 40.820313 377.132813 41.476563 376.476563 C 42.132813 375.820313 42.5 374.929688 42.5 374 Z "/>
<path style=" stroke:none;fill-rule:evenodd;fill:rgb(0%,66.665649%,0%);fill-opacity:1;" d="M 15.5 151 C 15.5 150.070313 15.132813 149.179688 14.476563 148.523438 C 13.820313 147.867188 12.929688 147.5 12 147.5 C 11.070313 147.5 10.179688 147.867188 9.523438 148.523438 C 8.867188 149.179688 8.5 150.070313 8.5 151 C 8.5 151.929688 8.867188 152.820313 9.523438 153.476563 C 10.179688 154.132813 11.070313 154.5 12 154.5 C 12.929688 154.5 13.820313 154.132813 14.476563 153.476563 C 15.132813 152.820313 15.5 151.929688 15.5 151 Z "/>
<path style=" stroke:none;fill-rule:evenodd;fill:rgb(0%,66.665649%,0%);fill-opacity:1;" d="M 355.5 12 C 355.5 11.070313 355.132813 10.179688 354.476563 9.523438 C 353.820313 8.867188 352.929688 8.5 352 8.5 C 351.070313 8.5 350.179688 8.867188 349.523438 9.523438 C 348.867188 10.179688 348.5 11.070313 348.5 12 C 348.5 12.929688 348.867188 13.820313 349.523438 14.476563 C 350.179688 15.132813 351.070313 15.5 352 15.5 C 352.929688 15.5 353.820313 15.132813 354.476563 14.476563 C 355.132813 13.820313 355.5 12.929688 355.5 12 Z "/>
<path style=" stroke:none;fill-rule:evenodd;fill:rgb(99.998474%,0%,0%);fill-opacity:1;" d="M 503.5 225 C 503.5 224.070313 503.132813 223.179688 502.476563 222.523438 C 501.820313 221.867188 500.929688 221.5 500 221.5 C 499.070313 221.5 498.179688 221.867188 497.523438 222.523438 C 496.867188 223.179688 496.5 224.070313 496.5 225 C 496.5 225.929688 496.867188 226.820313 497.523438 227.476563 C 498.179688 228.132813 499.070313 228.5 500 228.5 C 500.929688 228.5 501.820313 228.132813 502.476563 227.476563 C 503.132813 226.820313 503.5 225.929688 503.5 225 Z "/>
<path style=" stroke:none;fill-rule:evenodd;fill:rgb(99.998474%,0%,0%);fill-opacity:1;" d="M 365.5 354 C 365.5 353.070313 365.132813 352.179688 364.476563 351.523438 C 363.820313 350.867188 362.929688 350.5 362 350.5 C 361.070313 350.5 360.179688 350.867188 359.523438 351.523438 C 358.867188 352.179688 358.5 353.070313 358.5 354 C 358.5 354.929688 358.867188 355.820313 359.523438 356.476563 C 360.179688 357.132813 361.070313 357.5 362 357.5 C 362.929688 357.5 363.820313 357.132813 364.476563 356.476563 C 365.132813 355.820313 365.5 354.929688 365.5 354 Z "/>
<path style=" stroke:none;fill-rule:evenodd;fill:rgb(99.998474%,0%,0%);fill-opacity:1;" d="M 121.5 330 C 121.5 329.070313 121.132813 328.179688 120.476563 327.523438 C 119.820313 326.867188 118.929688 326.5 118 326.5 C 117.070313 326.5 116.179688 326.867188 115.523438 327.523438 C 114.867188 328.179688 114.5 329.070313 114.5 330 C 114.5 330.929688 114.867188 331.820313 115.523438 332.476563 C 116.179688 333.132813 117.070313 333.5 118 333.5 C 118.929688 333.5 119.820313 333.132813 120.476563 332.476563 C 121.132813 331.820313 121.5 330.929688 121.5 330 Z "/>
<path style=" stroke:none;fill-rule:evenodd;fill:rgb(99.998474%,0%,0%);fill-opacity:1;" d="M 87.5 176 C 87.5 175.070313 87.132813 174.179688 86.476563 173.523438 C 85.820313 172.867188 84.929688 172.5 84 172.5 C 83.070313 172.5 82.179688 172.867188 81.523438 173.523438 C 80.867188 174.179688 80.5 175.070313 80.5 176 C 80.5 176.929688 80.867188 177.820313 81.523438 178.476563 C 82.179688 179.132813 83.070313 179.5 84 179.5 C 84.929688 179.5 85.820313 179.132813 86.476563 178.476563 C 87.132813 177.820313 87.5 176.929688 87.5 176 Z "/>
<path style=" stroke:none;fill-rule:evenodd;fill:rgb(99.998474%,0%,0%);fill-opacity:1;" d="M 319.5 121 C 319.5 120.070313 319.132813 119.179688 318.476563 118.523438 C 317.820313 117.867188 316.929688 117.5 316 117.5 C 315.070313 117.5 314.179688 117.867188 313.523438 118.523438 C 312.867188 119.179688 312.5 120.070313 312.5 121 C 312.5 121.929688 312.867188 122.820313 313.523438 123.476563 C 314.179688 124.132813 315.070313 124.5 316 124.5 C 316.929688 124.5 317.820313 124.132813 318.476563 123.476563 C 319.132813 122.820313 319.5 121.929688 319.5 121 Z "/>
<path style="fill:none;stroke-width:1;stroke-linecap:square;stroke-linejoin:miter;stroke:rgb(99.998474%,0%,0%);stroke-opacity:1;stroke-dasharray:4,4;stroke-miterlimit:3.25;" d="M 563.5 221 L 277.410156 240.800781 "/>
<path style="fill:none;stroke-width:1;stroke-linecap:square;stroke-linejoin:miter;stroke:rgb(99.998474%,0%,0%);stroke-opacity:1;stroke-dasharray:4,4;stroke-miterlimit:3.25;" d="M 428.097656 442.800781 L 277.410156 240.800781 "/>
<path style="fill:none;stroke-width:1;stroke-linecap:square;stroke-linejoin:miter;stroke:rgb(99.998474%,0%,0%);stroke-opacity:1;stroke-dasharray:4,4;stroke-miterlimit:3.25;" d="M 39.402344 373.507813 L 277.410156 240.800781 "/>
<path style="fill:none;stroke-width:1;stroke-linecap:square;stroke-linejoin:miter;stroke:rgb(99.998474%,0%,0%);stroke-opacity:1;stroke-dasharray:4,4;stroke-miterlimit:3.25;" d="M 11.5 151.34375 L 277.410156 240.800781 "/>
<path style="fill:none;stroke-width:1;stroke-linecap:square;stroke-linejoin:miter;stroke:rgb(99.998474%,0%,0%);stroke-opacity:1;stroke-dasharray:4,4;stroke-miterlimit:3.25;" d="M 351.578125 11.539063 L 277.410156 240.800781 "/>
<path style=" stroke:none;fill-rule:evenodd;fill:rgb(99.998474%,0%,0%);fill-opacity:1;" d="M 280.5 241 C 280.5 240.070313 280.132813 239.179688 279.476563 238.523438 C 278.820313 237.867188 277.929688 237.5 277 237.5 C 276.070313 237.5 275.179688 237.867188 274.523438 238.523438 C 273.867188 239.179688 273.5 240.070313 273.5 241 C 273.5 241.929688 273.867188 242.820313 274.523438 243.476563 C 275.179688 244.132813 276.070313 244.5 277 244.5 C 277.929688 244.5 278.820313 244.132813 279.476563 243.476563 C 280.132813 242.820313 280.5 241.929688 280.5 241 Z "/>
<path style=" stroke:none;fill-rule:evenodd;fill:rgb(0%,66.665649%,0%);fill-opacity:1;" d="M 566.5 221 C 566.5 220.070313 566.132813 219.179688 565.476563 218.523438 C 564.820313 217.867188 563.929688 217.5 563 217.5 C 562.070313 217.5 561.179688 217.867188 560.523438 218.523438 C 559.867188 219.179688 559.5 220.070313 559.5 221 C 559.5 221.929688 559.867188 222.820313 560.523438 223.476563 C 561.179688 224.132813 562.070313 224.5 563 224.5 C 563.929688 224.5 564.820313 224.132813 565.476563 223.476563 C 566.132813 222.820313 566.5 221.929688 566.5 221 Z "/>
<path style=" stroke:none;fill-rule:evenodd;fill:rgb(0%,66.665649%,0%);fill-opacity:1;" d="M 431.5 443 C 431.5 442.070313 431.132813 441.179688 430.476563 440.523438 C 429.820313 439.867188 428.929688 439.5 428 439.5 C 427.070313 439.5 426.179688 439.867188 425.523438 440.523438 C 424.867188 441.179688 424.5 442.070313 424.5 443 C 424.5 443.929688 424.867188 444.820313 425.523438 445.476563 C 426.179688 446.132813 427.070313 446.5 428 446.5 C 428.929688 446.5 429.820313 446.132813 430.476563 445.476563 C 431.132813 444.820313 431.5 443.929688 431.5 443 Z "/>
<path style=" stroke:none;fill-rule:evenodd;fill:rgb(0%,66.665649%,0%);fill-opacity:1;" d="M 42.5 374 C 42.5 373.070313 42.132813 372.179688 41.476563 371.523438 C 40.820313 370.867188 39.929688 370.5 39 370.5 C 38.070313 370.5 37.179688 370.867188 36.523438 371.523438 C 35.867188 372.179688 35.5 373.070313 35.5 374 C 35.5 374.929688 35.867188 375.820313 36.523438 376.476563 C 37.179688 377.132813 38.070313 377.5 39 377.5 C 39.929688 377.5 40.820313 377.132813 41.476563 376.476563 C 42.132813 375.820313 42.5 374.929688 42.5 374 Z "/>
<path style=" stroke:none;fill-rule:evenodd;fill:rgb(0%,66.665649%,0%);fill-opacity:1;" d="M 15.5 151 C 15.5 150.070313 15.132813 149.179688 14.476563 148.523438 C 13.820313 147.867188 12.929688 147.5 12 147.5 C 11.070313 147.5 10.179688 147.867188 9.523438 148.523438 C 8.867188 149.179688 8.5 150.070313 8.5 151 C 8.5 151.929688 8.867188 152.820313 9.523438 153.476563 C 10.179688 154.132813 11.070313 154.5 12 154.5 C 12.929688 154.5 13.820313 154.132813 14.476563 153.476563 C 15.132813 152.820313 15.5 151.929688 15.5 151 Z "/>
<path style=" stroke:none;fill-rule:evenodd;fill:rgb(0%,66.665649%,0%);fill-opacity:1;" d="M 355.5 12 C 355.5 11.070313 355.132813 10.179688 354.476563 9.523438 C 353.820313 8.867188 352.929688 8.5 352 8.5 C 351.070313 8.5 350.179688 8.867188 349.523438 9.523438 C 348.867188 10.179688 348.5 11.070313 348.5 12 C 348.5 12.929688 348.867188 13.820313 349.523438 14.476563 C 350.179688 15.132813 351.070313 15.5 352 15.5 C 352.929688 15.5 353.820313 15.132813 354.476563 14.476563 C 355.132813 13.820313 355.5 12.929688 355.5 12 Z "/>
<path style="fill:none;stroke-width:2;stroke-linecap:square;stroke-linejoin:miter;stroke:rgb(0%,0%,0%);stroke-opacity:1;stroke-miterlimit:3.25;" d="M 1128.910156 226 C 1128.910156 180.753906 1101.949219 137.355469 1053.957031 105.363281 C 1005.964844 73.367188 940.871094 55.390625 873 55.390625 C 805.128906 55.390625 740.035156 73.367188 692.042969 105.363281 C 644.050781 137.355469 617.089844 180.753906 617.089844 226 C 617.089844 271.246094 644.050781 314.644531 692.042969 346.636719 C 740.035156 378.632813 805.128906 396.609375 873 396.609375 C 940.871094 396.609375 1005.964844 378.632813 1053.957031 346.636719 C 1101.949219 314.644531 1128.910156 271.246094 1128.910156 226 Z "/>
<path style="fill:none;stroke-width:2;stroke-linecap:square;stroke-linejoin:miter;stroke:rgb(0%,66.665649%,0%);stroke-opacity:1;stroke-miterlimit:3.25;" d="M 1148.5 194.070313 L 1083.917969 365.679688 L 761.953125 422.207031 L 596.5 258.679688 L 661.082031 87.066406 L 983.046875 30.539063 Z "/>
<path style="fill:none;stroke-width:2;stroke-linecap:square;stroke-linejoin:miter;stroke:rgb(0%,0%,99.998474%);stroke-opacity:1;stroke-miterlimit:3.25;" d="M 1084.660156 130.972656 L 1120.71875 267.890625 L 937.671875 391.355469 L 660.339844 321.777344 L 624.28125 184.855469 L 807.328125 61.390625 Z "/>
<path style=" stroke:none;fill-rule:evenodd;fill:rgb(0%,0%,99.998474%);fill-opacity:1;" d="M 1088.5 131 C 1088.5 130.070313 1088.132813 129.179688 1087.476563 128.523438 C 1086.820313 127.867188 1085.929688 127.5 1085 127.5 C 1084.070313 127.5 1083.179688 127.867188 1082.523438 128.523438 C 1081.867188 129.179688 1081.5 130.070313 1081.5 131 C 1081.5 131.929688 1081.867188 132.820313 1082.523438 133.476563 C 1083.179688 134.132813 1084.070313 134.5 1085 134.5 C 1085.929688 134.5 1086.820313 134.132813 1087.476563 133.476563 C 1088.132813 132.820313 1088.5 131.929688 1088.5 131 Z "/>
<path style=" stroke:none;fill-rule:evenodd;fill:rgb(0%,0%,99.998474%);fill-opacity:1;" d="M 1124.5 268 C 1124.5 267.070313 1124.132813 266.179688 1123.476563 265.523438 C 1122.820313 264.867188 1121.929688 264.5 1121 264.5 C 1120.070313 264.5 1119.179688 264.867188 1118.523438 265.523438 C 1117.867188 266.179688 1117.5 267.070313 1117.5 268 C 1117.5 268.929688 1117.867188 269.820313 1118.523438 270.476563 C 1119.179688 271.132813 1120.070313 271.5 1121 271.5 C 1121.929688 271.5 1122.820313 271.132813 1123.476563 270.476563 C 1124.132813 269.820313 1124.5 268.929688 1124.5 268 Z "/>
<path style=" stroke:none;fill-rule:evenodd;fill:rgb(0%,0%,99.998474%);fill-opacity:1;" d="M 941.5 391 C 941.5 390.070313 941.132813 389.179688 940.476563 388.523438 C 939.820313 387.867188 938.929688 387.5 938 387.5 C 937.070313 387.5 936.179688 387.867188 935.523438 388.523438 C 934.867188 389.179688 934.5 390.070313 934.5 391 C 934.5 391.929688 934.867188 392.820313 935.523438 393.476563 C 936.179688 394.132813 937.070313 394.5 938 394.5 C 938.929688 394.5 939.820313 394.132813 940.476563 393.476563 C 941.132813 392.820313 941.5 391.929688 941.5 391 Z "/>
<path style=" stroke:none;fill-rule:evenodd;fill:rgb(0%,0%,99.998474%);fill-opacity:1;" d="M 663.5 322 C 663.5 321.070313 663.132813 320.179688 662.476563 319.523438 C 661.820313 318.867188 660.929688 318.5 660 318.5 C 659.070313 318.5 658.179688 318.867188 657.523438 319.523438 C 656.867188 320.179688 656.5 321.070313 656.5 322 C 656.5 322.929688 656.867188 323.820313 657.523438 324.476563 C 658.179688 325.132813 659.070313 325.5 660 325.5 C 660.929688 325.5 661.820313 325.132813 662.476563 324.476563 C 663.132813 323.820313 663.5 322.929688 663.5 322 Z "/>
<path style=" stroke:none;fill-rule:evenodd;fill:rgb(0%,0%,99.998474%);fill-opacity:1;" d="M 627.5 185 C 627.5 184.070313 627.132813 183.179688 626.476563 182.523438 C 625.820313 181.867188 624.929688 181.5 624 181.5 C 623.070313 181.5 622.179688 181.867188 621.523438 182.523438 C 620.867188 183.179688 620.5 184.070313 620.5 185 C 620.5 185.929688 620.867188 186.820313 621.523438 187.476563 C 622.179688 188.132813 623.070313 188.5 624 188.5 C 624.929688 188.5 625.820313 188.132813 626.476563 187.476563 C 627.132813 186.820313 627.5 185.929688 627.5 185 Z "/>
<path style=" stroke:none;fill-rule:evenodd;fill:rgb(0%,0%,99.998474%);fill-opacity:1;" d="M 810.5 61 C 810.5 60.070313 810.132813 59.179688 809.476563 58.523438 C 808.820313 57.867188 807.929688 57.5 807 57.5 C 806.070313 57.5 805.179688 57.867188 804.523438 58.523438 C 803.867188 59.179688 803.5 60.070313 803.5 61 C 803.5 61.929688 803.867188 62.820313 804.523438 63.476563 C 805.179688 64.132813 806.070313 64.5 807 64.5 C 807.929688 64.5 808.820313 64.132813 809.476563 63.476563 C 810.132813 62.820313 810.5 61.929688 810.5 61 Z "/>
<path style=" stroke:none;fill-rule:evenodd;fill:rgb(0%,66.665649%,0%);fill-opacity:1;" d="M 1151.5 194 C 1151.5 193.070313 1151.132813 192.179688 1150.476563 191.523438 C 1149.820313 190.867188 1148.929688 190.5 1148 190.5 C 1147.070313 190.5 1146.179688 190.867188 1145.523438 191.523438 C 1144.867188 192.179688 1144.5 193.070313 1144.5 194 C 1144.5 194.929688 1144.867188 195.820313 1145.523438 196.476563 C 1146.179688 197.132813 1147.070313 197.5 1148 197.5 C 1148.929688 197.5 1149.820313 197.132813 1150.476563 196.476563 C 1151.132813 195.820313 1151.5 194.929688 1151.5 194 Z "/>
<path style=" stroke:none;fill-rule:evenodd;fill:rgb(0%,66.665649%,0%);fill-opacity:1;" d="M 1087.5 366 C 1087.5 365.070313 1087.132813 364.179688 1086.476563 363.523438 C 1085.820313 362.867188 1084.929688 362.5 1084 362.5 C 1083.070313 362.5 1082.179688 362.867188 1081.523438 363.523438 C 1080.867188 364.179688 1080.5 365.070313 1080.5 366 C 1080.5 366.929688 1080.867188 367.820313 1081.523438 368.476563 C 1082.179688 369.132813 1083.070313 369.5 1084 369.5 C 1084.929688 369.5 1085.820313 369.132813 1086.476563 368.476563 C 1087.132813 367.820313 1087.5 366.929688 1087.5 366 Z "/>
<path style=" stroke:none;fill-rule:evenodd;fill:rgb(0%,66.665649%,0%);fill-opacity:1;" d="M 765.5 422 C 765.5 421.070313 765.132813 420.179688 764.476563 419.523438 C 763.820313 418.867188 762.929688 418.5 762 418.5 C 761.070313 418.5 760.179688 418.867188 759.523438 419.523438 C 758.867188 420.179688 758.5 421.070313 758.5 422 C 758.5 422.929688 758.867188 423.820313 759.523438 424.476563 C 760.179688 425.132813 761.070313 425.5 762 425.5 C 762.929688 425.5 763.820313 425.132813 764.476563 424.476563 C 765.132813 423.820313 765.5 422.929688 765.5 422 Z "/>
<path style=" stroke:none;fill-rule:evenodd;fill:rgb(0%,66.665649%,0%);fill-opacity:1;" d="M 600.5 259 C 600.5 258.070313 600.132813 257.179688 599.476563 256.523438 C 598.820313 255.867188 597.929688 255.5 597 255.5 C 596.070313 255.5 595.179688 255.867188 594.523438 256.523438 C 593.867188 257.179688 593.5 258.070313 593.5 259 C 593.5 259.929688 593.867188 260.820313 594.523438 261.476563 C 595.179688 262.132813 596.070313 262.5 597 262.5 C 597.929688 262.5 598.820313 262.132813 599.476563 261.476563 C 600.132813 260.820313 600.5 259.929688 600.5 259 Z "/>
<path style=" stroke:none;fill-rule:evenodd;fill:rgb(0%,66.665649%,0%);fill-opacity:1;" d="M 664.5 87 C 664.5 86.070313 664.132813 85.179688 663.476563 84.523438 C 662.820313 83.867188 661.929688 83.5 661 83.5 C 660.070313 83.5 659.179688 83.867188 658.523438 84.523438 C 657.867188 85.179688 657.5 86.070313 657.5 87 C 657.5 87.929688 657.867188 88.820313 658.523438 89.476563 C 659.179688 90.132813 660.070313 90.5 661 90.5 C 661.929688 90.5 662.820313 90.132813 663.476563 89.476563 C 664.132813 88.820313 664.5 87.929688 664.5 87 Z "/>
<path style=" stroke:none;fill-rule:evenodd;fill:rgb(0%,66.665649%,0%);fill-opacity:1;" d="M 986.5 31 C 986.5 30.070313 986.132813 29.179688 985.476563 28.523438 C 984.820313 27.867188 983.929688 27.5 983 27.5 C 982.070313 27.5 981.179688 27.867188 980.523438 28.523438 C 979.867188 29.179688 979.5 30.070313 979.5 31 C 979.5 31.929688 979.867188 32.820313 980.523438 33.476563 C 981.179688 34.132813 982.070313 34.5 983 34.5 C 983.929688 34.5 984.820313 34.132813 985.476563 33.476563 C 986.132813 32.820313 986.5 31.929688 986.5 31 Z "/>
<path style=" stroke:none;fill-rule:evenodd;fill:rgb(99.998474%,0%,0%);fill-opacity:1;" d="M 1106.5 199 C 1106.5 198.070313 1106.132813 197.179688 1105.476563 196.523438 C 1104.820313 195.867188 1103.929688 195.5 1103 195.5 C 1102.070313 195.5 1101.179688 195.867188 1100.523438 196.523438 C 1099.867188 197.179688 1099.5 198.070313 1099.5 199 C 1099.5 199.929688 1099.867188 200.820313 1100.523438 201.476563 C 1101.179688 202.132813 1102.070313 202.5 1103 202.5 C 1103.929688 202.5 1104.820313 202.132813 1105.476563 201.476563 C 1106.132813 200.820313 1106.5 199.929688 1106.5 199 Z "/>
<path style=" stroke:none;fill-rule:evenodd;fill:rgb(99.998474%,0%,0%);fill-opacity:1;" d="M 1032.5 330 C 1032.5 329.070313 1032.132813 328.179688 1031.476563 327.523438 C 1030.820313 326.867188 1029.929688 326.5 1029 326.5 C 1028.070313 326.5 1027.179688 326.867188 1026.523438 327.523438 C 1025.867188 328.179688 1025.5 329.070313 1025.5 330 C 1025.5 330.929688 1025.867188 331.820313 1026.523438 332.476563 C 1027.179688 333.132813 1028.070313 333.5 1029 333.5 C 1029.929688 333.5 1030.820313 333.132813 1031.476563 332.476563 C 1032.132813 331.820313 1032.5 330.929688 1032.5 330 Z "/>
<path style=" stroke:none;fill-rule:evenodd;fill:rgb(99.998474%,0%,0%);fill-opacity:1;" d="M 802.5 357 C 802.5 356.070313 802.132813 355.179688 801.476563 354.523438 C 800.820313 353.867188 799.929688 353.5 799 353.5 C 798.070313 353.5 797.179688 353.867188 796.523438 354.523438 C 795.867188 355.179688 795.5 356.070313 795.5 357 C 795.5 357.929688 795.867188 358.820313 796.523438 359.476563 C 797.179688 360.132813 798.070313 360.5 799 360.5 C 799.929688 360.5 800.820313 360.132813 801.476563 359.476563 C 802.132813 358.820313 802.5 357.929688 802.5 357 Z "/>
<path style=" stroke:none;fill-rule:evenodd;fill:rgb(99.998474%,0%,0%);fill-opacity:1;" d="M 645.5 253 C 645.5 252.070313 645.132813 251.179688 644.476563 250.523438 C 643.820313 249.867188 642.929688 249.5 642 249.5 C 641.070313 249.5 640.179688 249.867188 639.523438 250.523438 C 638.867188 251.179688 638.5 252.070313 638.5 253 C 638.5 253.929688 638.867188 254.820313 639.523438 255.476563 C 640.179688 256.132813 641.070313 256.5 642 256.5 C 642.929688 256.5 643.820313 256.132813 644.476563 255.476563 C 645.132813 254.820313 645.5 253.929688 645.5 253 Z "/>
<path style=" stroke:none;fill-rule:evenodd;fill:rgb(99.998474%,0%,0%);fill-opacity:1;" d="M 719.5 123 C 719.5 122.070313 719.132813 121.179688 718.476563 120.523438 C 717.820313 119.867188 716.929688 119.5 716 119.5 C 715.070313 119.5 714.179688 119.867188 713.523438 120.523438 C 712.867188 121.179688 712.5 122.070313 712.5 123 C 712.5 123.929688 712.867188 124.820313 713.523438 125.476563 C 714.179688 126.132813 715.070313 126.5 716 126.5 C 716.929688 126.5 717.820313 126.132813 718.476563 125.476563 C 719.132813 124.820313 719.5 123.929688 719.5 123 Z "/>
<path style=" stroke:none;fill-rule:evenodd;fill:rgb(99.998474%,0%,0%);fill-opacity:1;" d="M 949.5 96 C 949.5 95.070313 949.132813 94.179688 948.476563 93.523438 C 947.820313 92.867188 946.929688 92.5 946 92.5 C 945.070313 92.5 944.179688 92.867188 943.523438 93.523438 C 942.867188 94.179688 942.5 95.070313 942.5 96 C 942.5 96.929688 942.867188 97.820313 943.523438 98.476563 C 944.179688 99.132813 945.070313 99.5 946 99.5 C 946.929688 99.5 947.820313 99.132813 948.476563 98.476563 C 949.132813 97.820313 949.5 96.929688 949.5 96 Z "/>
<path style="fill:none;stroke-width:1;stroke-linecap:square;stroke-linejoin:miter;stroke:rgb(99.998474%,0%,0%);stroke-opacity:1;stroke-dasharray:4,4;stroke-miterlimit:3.25;" d="M 1148.5 194.070313 L 872.5 226.375 "/>
<path style="fill:none;stroke-width:1;stroke-linecap:square;stroke-linejoin:miter;stroke:rgb(99.998474%,0%,0%);stroke-opacity:1;stroke-dasharray:4,4;stroke-miterlimit:3.25;" d="M 1083.917969 365.679688 L 872.5 226.375 "/>
<path style="fill:none;stroke-width:1;stroke-linecap:square;stroke-linejoin:miter;stroke:rgb(99.998474%,0%,0%);stroke-opacity:1;stroke-dasharray:4,4;stroke-miterlimit:3.25;" d="M 761.953125 422.207031 L 872.5 226.375 "/>
<path style="fill:none;stroke-width:1;stroke-linecap:square;stroke-linejoin:miter;stroke:rgb(99.998474%,0%,0%);stroke-opacity:1;stroke-dasharray:4,4;stroke-miterlimit:3.25;" d="M 596.5 258.679688 L 872.5 226.375 "/>
<path style="fill:none;stroke-width:1;stroke-linecap:square;stroke-linejoin:miter;stroke:rgb(99.998474%,0%,0%);stroke-opacity:1;stroke-dasharray:4,4;stroke-miterlimit:3.25;" d="M 661.082031 87.066406 L 872.5 226.375 "/>
<path style="fill:none;stroke-width:1;stroke-linecap:square;stroke-linejoin:miter;stroke:rgb(99.998474%,0%,0%);stroke-opacity:1;stroke-dasharray:4,4;stroke-miterlimit:3.25;" d="M 983.046875 30.539063 L 872.5 226.375 "/>
<path style=" stroke:none;fill-rule:evenodd;fill:rgb(99.998474%,0%,0%);fill-opacity:1;" d="M 876.5 226 C 876.5 225.070313 876.132813 224.179688 875.476563 223.523438 C 874.820313 222.867188 873.929688 222.5 873 222.5 C 872.070313 222.5 871.179688 222.867188 870.523438 223.523438 C 869.867188 224.179688 869.5 225.070313 869.5 226 C 869.5 226.929688 869.867188 227.820313 870.523438 228.476563 C 871.179688 229.132813 872.070313 229.5 873 229.5 C 873.929688 229.5 874.820313 229.132813 875.476563 228.476563 C 876.132813 227.820313 876.5 226.929688 876.5 226 Z "/>
<path style=" stroke:none;fill-rule:evenodd;fill:rgb(0%,66.665649%,0%);fill-opacity:1;" d="M 1151.5 194 C 1151.5 193.070313 1151.132813 192.179688 1150.476563 191.523438 C 1149.820313 190.867188 1148.929688 190.5 1148 190.5 C 1147.070313 190.5 1146.179688 190.867188 1145.523438 191.523438 C 1144.867188 192.179688 1144.5 193.070313 1144.5 194 C 1144.5 194.929688 1144.867188 195.820313 1145.523438 196.476563 C 1146.179688 197.132813 1147.070313 197.5 1148 197.5 C 1148.929688 197.5 1149.820313 197.132813 1150.476563 196.476563 C 1151.132813 195.820313 1151.5 194.929688 1151.5 194 Z "/>
<path style=" stroke:none;fill-rule:evenodd;fill:rgb(0%,66.665649%,0%);fill-opacity:1;" d="M 1087.5 366 C 1087.5 365.070313 1087.132813 364.179688 1086.476563 363.523438 C 1085.820313 362.867188 1084.929688 362.5 1084 362.5 C 1083.070313 362.5 1082.179688 362.867188 1081.523438 363.523438 C 1080.867188 364.179688 1080.5 365.070313 1080.5 366 C 1080.5 366.929688 1080.867188 367.820313 1081.523438 368.476563 C 1082.179688 369.132813 1083.070313 369.5 1084 369.5 C 1084.929688 369.5 1085.820313 369.132813 1086.476563 368.476563 C 1087.132813 367.820313 1087.5 366.929688 1087.5 366 Z "/>
<path style=" stroke:none;fill-rule:evenodd;fill:rgb(0%,66.665649%,0%);fill-opacity:1;" d="M 765.5 422 C 765.5 421.070313 765.132813 420.179688 764.476563 419.523438 C 763.820313 418.867188 762.929688 418.5 762 418.5 C 761.070313 418.5 760.179688 418.867188 759.523438 419.523438 C 758.867188 420.179688 758.5 421.070313 758.5 422 C 758.5 422.929688 758.867188 423.820313 759.523438 424.476563 C 760.179688 425.132813 761.070313 425.5 762 425.5 C 762.929688 425.5 763.820313 425.132813 764.476563 424.476563 C 765.132813 423.820313 765.5 422.929688 765.5 422 Z "/>
<path style=" stroke:none;fill-rule:evenodd;fill:rgb(0%,66.665649%,0%);fill-opacity:1;" d="M 600.5 259 C 600.5 258.070313 600.132813 257.179688 599.476563 256.523438 C 598.820313 255.867188 597.929688 255.5 597 255.5 C 596.070313 255.5 595.179688 255.867188 594.523438 256.523438 C 593.867188 257.179688 593.5 258.070313 593.5 259 C 593.5 259.929688 593.867188 260.820313 594.523438 261.476563 C 595.179688 262.132813 596.070313 262.5 597 262.5 C 597.929688 262.5 598.820313 262.132813 599.476563 261.476563 C 600.132813 260.820313 600.5 259.929688 600.5 259 Z "/>
<path style=" stroke:none;fill-rule:evenodd;fill:rgb(0%,66.665649%,0%);fill-opacity:1;" d="M 664.5 87 C 664.5 86.070313 664.132813 85.179688 663.476563 84.523438 C 662.820313 83.867188 661.929688 83.5 661 83.5 C 660.070313 83.5 659.179688 83.867188 658.523438 84.523438 C 657.867188 85.179688 657.5 86.070313 657.5 87 C 657.5 87.929688 657.867188 88.820313 658.523438 89.476563 C 659.179688 90.132813 660.070313 90.5 661 90.5 C 661.929688 90.5 662.820313 90.132813 663.476563 89.476563 C 664.132813 88.820313 664.5 87.929688 664.5 87 Z "/>
<path style=" stroke:none;fill-rule:evenodd;fill:rgb(0%,66.665649%,0%);fill-opacity:1;" d="M 986.5 31 C 986.5 30.070313 986.132813 29.179688 985.476563 28.523438 C 984.820313 27.867188 983.929688 27.5 983 27.5 C 982.070313 27.5 981.179688 27.867188 980.523438 28.523438 C 979.867188 29.179688 979.5 30.070313 979.5 31 C 979.5 31.929688 979.867188 32.820313 980.523438 33.476563 C 981.179688 34.132813 982.070313 34.5 983 34.5 C 983.929688 34.5 984.820313 34.132813 985.476563 33.476563 C 986.132813 32.820313 986.5 31.929688 986.5 31 Z "/>
</g>
</svg>
