<?xml version="1.0" encoding="UTF-8"?>
<svg xmlns="http://www.w3.org/2000/svg" xmlns:xlink="http://www.w3.org/1999/xlink" width="1139pt" height="534pt" viewBox="0 0 1139 534" version="1.1">
<g id="surface202">
<path style="fill:none;stroke-width:2;stroke-linecap:square;stroke-linejoin:miter;stroke:rgb(0%,0%,0%);stroke-opacity:1;stroke-miterlimit:3.25;" d="M 521.511719 273 C 521.511719 231.710938 496.910156 192.117188 453.117188 162.921875 C 409.328125 133.726563 349.929688 117.324219 288 117.324219 C 226.070313 117.324219 166.671875 133.726563 122.882813 162.921875 C 79.089844 192.117188 54.488281 231.710938 54.488281 273 C 54.488281 314.289063 79.089844 353.882813 122.882813 383.078125 C 166.671875 412.273438 226.070313 428.675781 288 428.675781 C 349.929688 428.675781 409.328125 412.273438 453.117188 383.078125 C 496.910156 353.882813 521.511719 314.289063 521.511719 273 Z "/>
<path style="fill:none;stroke-width:2;stroke-linecap:square;stroke-linejoin:miter;stroke:rgb(59.999084%,39.99939%,19.999695%);stroke-opacity:1;stroke-miterlimit:3.25;" d="M 482.296875 273 C 482.296875 250.097656 461.824219 228.132813 425.386719 211.9375 C 388.949219 195.746094 339.53125 186.648438 288 186.648438 C 236.46875 186.648438 187.050781 195.746094 150.613281 211.9375 C 114.175781 228.132813 93.703125 250.097656 93.703125 273 C 93.703125 295.902344 114.175781 317.867188 150.613281 334.0625 C 187.050781 350.253906 236.46875 359.351563 288 359.351563 C 339.53125 359.351563 388.949219 350.253906 425.386719 334.0625 C 461.824219 317.867188 482.296875 295.902344 482.296875 273 Z "/>
<path style="fill:none;stroke-width:2;stroke-linecap:square;stroke-linejoin:miter;stroke:rgb(0%,66.665649%,0%);stroke-opacity:1;stroke-miterlimit:3.25;" d="M 563.253906 328.195313 L 173.332031 529.585938 L 12.746094 218.667969 L 402.667969 17.277344 Z "/>
<path style="fill:none;stroke-width:2;stroke-linecap:square;stroke-linejoin:miter;stroke:rgb(0%,0%,99.998474%);stroke-opacity:1;stroke-miterlimit:3.25;" d="M 508.792969 222.75 L 431.011719 396.496094 L 67.207031 324.117188 L 144.988281 150.367188 Z "/>
<path style=" stroke:none;fill-rule:evenodd;fill:rgb(0%,0%,99.998474%);fill-opacity:1;" d="M 512.5 223 C 512.5 222.070313 512.132813 221.179688 511.476563 220.523438 C 510.820313 219.867188 509.929688 219.5 509 219.5 C 508.070313 219.5 507.179688 219.867188 506.523438 220.523438 C 505.867188 221.179688 505.5 222.070313 505.5 223 C 505.5 223.929688 505.867188 224.820313 506.523438 225.476563 C 507.179688 226.132813 508.070313 226.5 509 226.5 C 509.929688 226.5 510.820313 226.132813 511.476563 225.476563 C 512.132813 224.820313 512.5 223.929688 512.5 223 Z "/>
<path style=" stroke:none;fill-rule:evenodd;fill:rgb(0%,0%,99.998474%);fill-opacity:1;" d="M 434.5 396 C 434.5 395.070313 434.132813 394.179688 433.476563 393.523438 C 432.820313 392.867188 431.929688 392.5 431 392.5 C 430.070313 392.5 429.179688 392.867188 428.523438 393.523438 C 427.867188 394.179688 427.5 395.070313 427.5 396 C 427.5 396.929688 427.867188 397.820313 428.523438 398.476563 C 429.179688 399.132813 430.070313 399.5 431 399.5 C 431.929688 399.5 432.820313 399.132813 433.476563 398.476563 C 434.132813 397.820313 434.5 396.929688 434.5 396 Z "/>
<path style=" stroke:none;fill-rule:evenodd;fill:rgb(0%,0%,99.998474%);fill-opacity:1;" d="M 70.5 324 C 70.5 323.070313 70.132813 322.179688 69.476563 321.523438 C 68.820313 320.867188 67.929688 320.5 67 320.5 C 66.070313 320.5 65.179688 320.867188 64.523438 321.523438 C 63.867188 322.179688 63.5 323.070313 63.5 324 C 63.5 324.929688 63.867188 325.820313 64.523438 326.476563 C 65.179688 327.132813 66.070313 327.5 67 327.5 C 67.929688 327.5 68.820313 327.132813 69.476563 326.476563 C 70.132813 325.820313 70.5 324.929688 70.5 324 Z "/>
<path style=" stroke:none;fill-rule:evenodd;fill:rgb(0%,0%,99.998474%);fill-opacity:1;" d="M 148.5 150 C 148.5 149.070313 148.132813 148.179688 147.476563 147.523438 C 146.820313 146.867188 145.929688 146.5 145 146.5 C 144.070313 146.5 143.179688 146.867188 142.523438 147.523438 C 141.867188 148.179688 141.5 149.070313 141.5 150 C 141.5 150.929688 141.867188 151.820313 142.523438 152.476563 C 143.179688 153.132813 144.070313 153.5 145 153.5 C 145.929688 153.5 146.820313 153.132813 147.476563 152.476563 C 148.132813 151.820313 148.5 150.929688 148.5 150 Z "/>
<path style=" stroke:none;fill-rule:evenodd;fill:rgb(0%,66.665649%,0%);fill-opacity:1;" d="M 566.5 328 C 566.5 327.070313 566.132813 326.179688 565.476563 325.523438 C 564.820313 324.867188 563.929688 324.5 563 324.5 C 562.070313 324.5 561.179688 324.867188 560.523438 325.523438 C 559.867188 326.179688 559.5 327.070313 559.5 328 C 559.5 328.929688 559.867188 329.820313 560.523438 330.476563 C 561.179688 331.132813 562.070313 331.5 563 331.5 C 563.929688 331.5 564.820313 331.132813 565.476563 330.476563 C 566.132813 329.820313 566.5 328.929688 566.5 328 Z "/>
<path style=" stroke:none;fill-rule:evenodd;fill:rgb(0%,66.665649%,0%);fill-opacity:1;" d="M 176.5 530 C 176.5 529.070313 176.132813 528.179688 175.476563 527.523438 C 174.820313 526.867188 173.929688 526.5 173 526.5 C 172.070313 526.5 171.179688 526.867188 170.523438 527.523438 C 169.867188 528.179688 169.5 529.070313 169.5 530 C 169.5 530.929688 169.867188 531.820313 170.523438 532.476563 C 171.179688 533.132813 172.070313 533.5 173 533.5 C 173.929688 533.5 174.820313 533.132813 175.476563 532.476563 C 176.132813 531.820313 176.5 530.929688 176.5 530 Z "/>
<path style=" stroke:none;fill-rule:evenodd;fill:rgb(0%,66.665649%,0%);fill-opacity:1;" d="M 16.5 219 C 16.5 218.070313 16.132813 217.179688 15.476563 216.523438 C 14.820313 215.867188 13.929688 215.5 13 215.5 C 12.070313 215.5 11.179688 215.867188 10.523438 216.523438 C 9.867188 217.179688 9.5 218.070313 9.5 219 C 9.5 219.929688 9.867188 220.820313 10.523438 221.476563 C 11.179688 222.132813 12.070313 222.5 13 222.5 C 13.929688 222.5 14.820313 222.132813 15.476563 221.476563 C 16.132813 220.820313 16.5 219.929688 16.5 219 Z "/>
<path style=" stroke:none;fill-rule:evenodd;fill:rgb(0%,66.665649%,0%);fill-opacity:1;" d="M 406.5 17 C 406.5 16.070313 406.132813 15.179688 405.476563 14.523438 C 404.820313 13.867188 403.929688 13.5 403 13.5 C 402.070313 13.5 401.179688 13.867188 400.523438 14.523438 C 399.867188 15.179688 399.5 16.070313 399.5 17 C 399.5 17.929688 399.867188 18.820313 400.523438 19.476563 C 401.179688 20.132813 402.070313 20.5 403 20.5 C 403.929688 20.5 404.820313 20.132813 405.476563 19.476563 C 406.132813 18.820313 406.5 17.929688 406.5 17 Z "/>
<path style=" stroke:none;fill-rule:evenodd;fill:rgb(0%,66.665649%,0%);fill-opacity:1;" d="M 482.5 290 C 482.5 289.070313 482.132813 288.179688 481.476563 287.523438 C 480.820313 286.867188 479.929688 286.5 479 286.5 C 478.070313 286.5 477.179688 286.867188 476.523438 287.523438 C 475.867188 288.179688 475.5 289.070313 475.5 290 C 475.5 290.929688 475.867188 291.820313 476.523438 292.476563 C 477.179688 293.132813 478.070313 293.5 479 293.5 C 479.929688 293.5 480.820313 293.132813 481.476563 292.476563 C 482.132813 291.820313 482.5 290.929688 482.5 290 Z "/>
<path style=" stroke:none;fill-rule:evenodd;fill:rgb(0%,66.665649%,0%);fill-opacity:1;" d="M 212.5 352 C 212.5 351.070313 212.132813 350.179688 211.476563 349.523438 C 210.820313 348.867188 209.929688 348.5 209 348.5 C 208.070313 348.5 207.179688 348.867188 206.523438 349.523438 C 205.867188 350.179688 205.5 351.070313 205.5 352 C 205.5 352.929688 205.867188 353.820313 206.523438 354.476563 C 207.179688 355.132813 208.070313 355.5 209 355.5 C 209.929688 355.5 210.820313 355.132813 211.476563 354.476563 C 212.132813 353.820313 212.5 352.929688 212.5 352 Z "/>
<path style=" stroke:none;fill-rule:evenodd;fill:rgb(0%,66.665649%,0%);fill-opacity:1;" d="M 100.5 257 C 100.5 256.070313 100.132813 255.179688 99.476563 254.523438 C 98.820313 253.867188 97.929688 253.5 97 253.5 C 96.070313 253.5 95.179688 253.867188 94.523438 254.523438 C 93.867188 255.179688 93.5 256.070313 93.5 257 C 93.5 257.929688 93.867188 258.820313 94.523438 259.476563 C 95.179688 260.132813 96.070313 260.5 97 260.5 C 97.929688 260.5 98.820313 260.132813 99.476563 259.476563 C 100.132813 258.820313 100.5 257.929688 100.5 257 Z "/>
<path style=" stroke:none;fill-rule:evenodd;fill:rgb(0%,66.665649%,0%);fill-opacity:1;" d="M 370.5 195 C 370.5 194.070313 370.132813 193.179688 369.476563 192.523438 C 368.820313 191.867188 367.929688 191.5 367 191.5 C 366.070313 191.5 365.179688 191.867188 364.523438 192.523438 C 363.867188 193.179688 363.5 194.070313 363.5 195 C 363.5 195.929688 363.867188 196.820313 364.523438 197.476563 C 365.179688 198.132813 366.070313 198.5 367 198.5 C 367.929688 198.5 368.820313 198.132813 369.476563 197.476563 C 370.132813 196.820313 370.5 195.929688 370.5 195 Z "/>
<path style="fill:none;stroke-width:1;stroke-linecap:square;stroke-linejoin:miter;stroke:rgb(0%,66.665649%,0%);stroke-opacity:1;stroke-dasharray:4,4;stroke-miterlimit:3.25;" d="M 563.253906 328.195313 L 478.558594 290.28125 "/>
<path style="fill:none;stroke-width:1;stroke-linecap:square;stroke-linejoin:miter;stroke:rgb(0%,66.665649%,0%);stroke-opacity:1;stroke-dasharray:4,4;stroke-miterlimit:3.25;" d="M 173.332031 529.585938 L 208.613281 352.25 "/>
<path style="fill:none;stroke-width:1;stroke-linecap:square;stroke-linejoin:miter;stroke:rgb(0%,66.665649%,0%);stroke-opacity:1;stroke-dasharray:4,4;stroke-miterlimit:3.25;" d="M 12.746094 218.667969 L 97.441406 256.582031 "/>
<path style="fill:none;stroke-width:1;stroke-linecap:square;stroke-linejoin:miter;stroke:rgb(0%,66.665649%,0%);stroke-opacity:1;stroke-dasharray:4,4;stroke-miterlimit:3.25;" d="M 402.667969 17.277344 L 367.386719 194.617188 "/>
<path style="fill:none;stroke-width:2;stroke-linecap:square;stroke-linejoin:miter;stroke:rgb(0%,0%,0%);stroke-opacity:1;stroke-miterlimit:3.25;" d="M 1106.511719 273 C 1106.511719 231.710938 1081.910156 192.117188 1038.117188 162.921875 C 994.328125 133.726563 934.929688 117.324219 873 117.324219 C 811.070313 117.324219 751.671875 133.726563 707.882813 162.921875 C 664.089844 192.117188 639.488281 231.710938 639.488281 273 C 639.488281 314.289063 664.089844 353.882813 707.882813 383.078125 C 751.671875 412.273438 811.070313 428.675781 873 428.675781 C 934.929688 428.675781 994.328125 412.273438 1038.117188 383.078125 C 1081.910156 353.882813 1106.511719 314.289063 1106.511719 273 Z "/>
<path style="fill:none;stroke-width:2;stroke-linecap:square;stroke-linejoin:miter;stroke:rgb(59.999084%,39.99939%,19.999695%);stroke-opacity:1;stroke-miterlimit:3.25;" d="M 1079.425781 273 C 1079.425781 243.566406 1057.675781 215.335938 1018.964844 194.519531 C 980.253906 173.707031 927.746094 162.011719 873 162.011719 C 818.253906 162.011719 765.746094 173.707031 727.035156 194.519531 C 688.324219 215.335938 666.574219 243.566406 666.574219 273 C 666.574219 302.433594 688.324219 330.664063 727.035156 351.480469 C 765.746094 372.292969 818.253906 383.988281 873 383.988281 C 927.746094 383.988281 980.253906 372.292969 1018.964844 351.480469 C 1057.675781 330.664063 1079.425781 302.433594 1079.425781 273 Z "/>
<path style="fill:none;stroke-width:2;stroke-linecap:square;stroke-linejoin:miter;stroke:rgb(0%,66.665649%,0%);stroke-opacity:1;stroke-miterlimit:3.25;" d="M 1134.847656 302.238281 L 918.570313 488.515625 L 623.234375 344.523438 L 664.109375 139.777344 L 1028.9375 97.179688 Z "/>
<path style="fill:none;stroke-width:2;stroke-linecap:square;stroke-linejoin:miter;stroke:rgb(0%,0%,99.998474%);stroke-opacity:1;stroke-miterlimit:3.25;" d="M 1093.792969 222.75 L 1057.660156 368.71875 L 735.152344 399.089844 L 641.527344 252.894531 L 832.714844 120.089844 Z "/>
<path style=" stroke:none;fill-rule:evenodd;fill:rgb(0%,0%,99.998474%);fill-opacity:1;" d="M 1097.5 223 C 1097.5 222.070313 1097.132813 221.179688 1096.476563 220.523438 C 1095.820313 219.867188 1094.929688 219.5 1094 219.5 C 1093.070313 219.5 1092.179688 219.867188 1091.523438 220.523438 C 1090.867188 221.179688 1090.5 222.070313 1090.5 223 C 1090.5 223.929688 1090.867188 224.820313 1091.523438 225.476563 C 1092.179688 226.132813 1093.070313 226.5 1094 226.5 C 1094.929688 226.5 1095.820313 226.132813 1096.476563 225.476563 C 1097.132813 224.820313 1097.5 223.929688 1097.5 223 Z "/>
<path style=" stroke:none;fill-rule:evenodd;fill:rgb(0%,0%,99.998474%);fill-opacity:1;" d="M 1061.5 369 C 1061.5 368.070313 1061.132813 367.179688 1060.476563 366.523438 C 1059.820313 365.867188 1058.929688 365.5 1058 365.5 C 1057.070313 365.5 1056.179688 365.867188 1055.523438 366.523438 C 1054.867188 367.179688 1054.5 368.070313 1054.5 369 C 1054.5 369.929688 1054.867188 370.820313 1055.523438 371.476563 C 1056.179688 372.132813 1057.070313 372.5 1058 372.5 C 1058.929688 372.5 1059.820313 372.132813 1060.476563 371.476563 C 1061.132813 370.820313 1061.5 369.929688 1061.5 369 Z "/>
<path style=" stroke:none;fill-rule:evenodd;fill:rgb(0%,0%,99.998474%);fill-opacity:1;" d="M 738.5 399 C 738.5 398.070313 738.132813 397.179688 737.476563 396.523438 C 736.820313 395.867188 735.929688 395.5 735 395.5 C 734.070313 395.5 733.179688 395.867188 732.523438 396.523438 C 731.867188 397.179688 731.5 398.070313 731.5 399 C 731.5 399.929688 731.867188 400.820313 732.523438 401.476563 C 733.179688 402.132813 734.070313 402.5 735 402.5 C 735.929688 402.5 736.820313 402.132813 737.476563 401.476563 C 738.132813 400.820313 738.5 399.929688 738.5 399 Z "/>
<path style=" stroke:none;fill-rule:evenodd;fill:rgb(0%,0%,99.998474%);fill-opacity:1;" d="M 645.5 253 C 645.5 252.070313 645.132813 251.179688 644.476563 250.523438 C 643.820313 249.867188 642.929688 249.5 642 249.5 C 641.070313 249.5 640.179688 249.867188 639.523438 250.523438 C 638.867188 251.179688 638.5 252.070313 638.5 253 C 638.5 253.929688 638.867188 254.820313 639.523438 255.476563 C 640.179688 256.132813 641.070313 256.5 642 256.5 C 642.929688 256.5 643.820313 256.132813 644.476563 255.476563 C 645.132813 254.820313 645.5 253.929688 645.5 253 Z "/>
<path style=" stroke:none;fill-rule:evenodd;fill:rgb(0%,0%,99.998474%);fill-opacity:1;" d="M 836.5 120 C 836.5 119.070313 836.132813 118.179688 835.476563 117.523438 C 834.820313 116.867188 833.929688 116.5 833 116.5 C 832.070313 116.5 831.179688 116.867188 830.523438 117.523438 C 829.867188 118.179688 829.5 119.070313 829.5 120 C 829.5 120.929688 829.867188 121.820313 830.523438 122.476563 C 831.179688 123.132813 832.070313 123.5 833 123.5 C 833.929688 123.5 834.820313 123.132813 835.476563 122.476563 C 836.132813 121.820313 836.5 120.929688 836.5 120 Z "/>
<path style=" stroke:none;fill-rule:evenodd;fill:rgb(0%,66.665649%,0%);fill-opacity:1;" d="M 1138.5 302 C 1138.5 301.070313 1138.132813 300.179688 1137.476563 299.523438 C 1136.820313 298.867188 1135.929688 298.5 1135 298.5 C 1134.070313 298.5 1133.179688 298.867188 1132.523438 299.523438 C 1131.867188 300.179688 1131.5 301.070313 1131.5 302 C 1131.5 302.929688 1131.867188 303.820313 1132.523438 304.476563 C 1133.179688 305.132813 1134.070313 305.5 1135 305.5 C 1135.929688 305.5 1136.820313 305.132813 1137.476563 304.476563 C 1138.132813 303.820313 1138.5 302.929688 1138.5 302 Z "/>
<path style=" stroke:none;fill-rule:evenodd;fill:rgb(0%,66.665649%,0%);fill-opacity:1;" d="M 922.5 489 C 922.5 488.070313 922.132813 487.179688 921.476563 486.523438 C 920.820313 485.867188 919.929688 485.5 919 485.5 C 918.070313 485.5 917.179688 485.867188 916.523438 486.523438 C 915.867188 487.179688 915.5 488.070313 915.5 489 C 915.5 489.929688 915.867188 490.820313 916.523438 491.476563 C 917.179688 492.132813 918.070313 492.5 919 492.5 C 919.929688 492.5 920.820313 492.132813 921.476563 491.476563 C 922.132813 490.820313 922.5 489.929688 922.5 489 Z "/>
<path style=" stroke:none;fill-rule:evenodd;fill:rgb(0%,66.665649%,0%);fill-opacity:1;" d="M 626.5 345 C 626.5 344.070313 626.132813 343.179688 625.476563 342.523438 C 624.820313 341.867188 623.929688 341.5 623 341.5 C 622.070313 341.5 621.179688 341.867188 620.523438 342.523438 C 619.867188 343.179688 619.5 344.070313 619.5 345 C 619.5 345.929688 619.867188 346.820313 620.523438 347.476563 C 621.179688 348.132813 622.070313 348.5 623 348.5 C 623.929688 348.5 624.820313 348.132813 625.476563 347.476563 C 626.132813 346.820313 626.5 345.929688 626.5 345 Z "/>
<path style=" stroke:none;fill-rule:evenodd;fill:rgb(0%,66.665649%,0%);fill-opacity:1;" d="M 667.5 140 C 667.5 139.070313 667.132813 138.179688 666.476563 137.523438 C 665.820313 136.867188 664.929688 136.5 664 136.5 C 663.070313 136.5 662.179688 136.867188 661.523438 137.523438 C 660.867188 138.179688 660.5 139.070313 660.5 140 C 660.5 140.929688 660.867188 141.820313 661.523438 142.476563 C 662.179688 143.132813 663.070313 143.5 664 143.5 C 664.929688 143.5 665.820313 143.132813 666.476563 142.476563 C 667.132813 141.820313 667.5 140.929688 667.5 140 Z "/>
<path style=" stroke:none;fill-rule:evenodd;fill:rgb(0%,66.665649%,0%);fill-opacity:1;" d="M 1032.5 97 C 1032.5 96.070313 1032.132813 95.179688 1031.476563 94.523438 C 1030.820313 93.867188 1029.929688 93.5 1029 93.5 C 1028.070313 93.5 1027.179688 93.867188 1026.523438 94.523438 C 1025.867188 95.179688 1025.5 96.070313 1025.5 97 C 1025.5 97.929688 1025.867188 98.820313 1026.523438 99.476563 C 1027.179688 100.132813 1028.070313 100.5 1029 100.5 C 1029.929688 100.5 1030.820313 100.132813 1031.476563 99.476563 C 1032.132813 98.820313 1032.5 97.929688 1032.5 97 Z "/>
<path style=" stroke:none;fill-rule:evenodd;fill:rgb(0%,66.665649%,0%);fill-opacity:1;" d="M 1081.5 288 C 1081.5 287.070313 1081.132813 286.179688 1080.476563 285.523438 C 1079.820313 284.867188 1078.929688 284.5 1078 284.5 C 1077.070313 284.5 1076.179688 284.867188 1075.523438 285.523438 C 1074.867188 286.179688 1074.5 287.070313 1074.5 288 C 1074.5 288.929688 1074.867188 289.820313 1075.523438 290.476563 C 1076.179688 291.132813 1077.070313 291.5 1078 291.5 C 1078.929688 291.5 1079.820313 291.132813 1080.476563 290.476563 C 1081.132813 289.820313 1081.5 288.929688 1081.5 288 Z "/>
<path style=" stroke:none;fill-rule:evenodd;fill:rgb(0%,66.665649%,0%);fill-opacity:1;" d="M 912.5 383 C 912.5 382.070313 912.132813 381.179688 911.476563 380.523438 C 910.820313 379.867188 909.929688 379.5 909 379.5 C 908.070313 379.5 907.179688 379.867188 906.523438 380.523438 C 905.867188 381.179688 905.5 382.070313 905.5 383 C 905.5 383.929688 905.867188 384.820313 906.523438 385.476563 C 907.179688 386.132813 908.070313 386.5 909 386.5 C 909.929688 386.5 910.820313 386.132813 911.476563 385.476563 C 912.132813 384.820313 912.5 383.929688 912.5 383 Z "/>
<path style=" stroke:none;fill-rule:evenodd;fill:rgb(0%,66.665649%,0%);fill-opacity:1;" d="M 681.5 310 C 681.5 309.070313 681.132813 308.179688 680.476563 307.523438 C 679.820313 306.867188 678.929688 306.5 678 306.5 C 677.070313 306.5 676.179688 306.867188 675.523438 307.523438 C 674.867188 308.179688 674.5 309.070313 674.5 310 C 674.5 310.929688 674.867188 311.820313 675.523438 312.476563 C 676.179688 313.132813 677.070313 313.5 678 313.5 C 678.929688 313.5 679.820313 313.132813 680.476563 312.476563 C 681.132813 311.820313 681.5 310.929688 681.5 310 Z "/>
<path style=" stroke:none;fill-rule:evenodd;fill:rgb(0%,66.665649%,0%);fill-opacity:1;" d="M 713.5 205 C 713.5 204.070313 713.132813 203.179688 712.476563 202.523438 C 711.820313 201.867188 710.929688 201.5 710 201.5 C 709.070313 201.5 708.179688 201.867188 707.523438 202.523438 C 706.867188 203.179688 706.5 204.070313 706.5 205 C 706.5 205.929688 706.867188 206.820313 707.523438 207.476563 C 708.179688 208.132813 709.070313 208.5 710 208.5 C 710.929688 208.5 711.820313 208.132813 712.476563 207.476563 C 713.132813 206.820313 713.5 205.929688 713.5 205 Z "/>
<path style=" stroke:none;fill-rule:evenodd;fill:rgb(0%,66.665649%,0%);fill-opacity:1;" d="M 998.5 184 C 998.5 183.070313 998.132813 182.179688 997.476563 181.523438 C 996.820313 180.867188 995.929688 180.5 995 180.5 C 994.070313 180.5 993.179688 180.867188 992.523438 181.523438 C 991.867188 182.179688 991.5 183.070313 991.5 184 C 991.5 184.929688 991.867188 185.820313 992.523438 186.476563 C 993.179688 187.132813 994.070313 187.5 995 187.5 C 995.929688 187.5 996.820313 187.132813 997.476563 186.476563 C 998.132813 185.820313 998.5 184.929688 998.5 184 Z "/>
<path style="fill:none;stroke-width:1;stroke-linecap:square;stroke-linejoin:miter;stroke:rgb(0%,66.665649%,0%);stroke-opacity:1;stroke-dasharray:4,4;stroke-miterlimit:3.25;" d="M 1134.847656 302.238281 L 1077.621094 288.074219 "/>
<path style="fill:none;stroke-width:1;stroke-linecap:square;stroke-linejoin:miter;stroke:rgb(0%,66.665649%,0%);stroke-opacity:1;stroke-dasharray:4,4;stroke-miterlimit:3.25;" d="M 918.570313 488.515625 L 908.613281 382.753906 "/>
<path style="fill:none;stroke-width:1;stroke-linecap:square;stroke-linejoin:miter;stroke:rgb(0%,66.665649%,0%);stroke-opacity:1;stroke-dasharray:4,4;stroke-miterlimit:3.25;" d="M 623.234375 344.523438 L 677.820313 309.566406 "/>
<path style="fill:none;stroke-width:1;stroke-linecap:square;stroke-linejoin:miter;stroke:rgb(0%,66.665649%,0%);stroke-opacity:1;stroke-dasharray:4,4;stroke-miterlimit:3.25;" d="M 664.109375 139.777344 L 709.761719 205.5 "/>
<path style="fill:none;stroke-width:1;stroke-linecap:square;stroke-linejoin:miter;stroke:rgb(0%,66.665649%,0%);stroke-opacity:1;stroke-dasharray:4,4;stroke-miterlimit:3.25;" d="M 1028.9375 97.179688 L 994.855469 183.847656 "/>
</g>
</svg>
