<?xml version="1.0" encoding="UTF-8"?>
<svg xmlns="http://www.w3.org/2000/svg" xmlns:xlink="http://www.w3.org/1999/xlink" width="765pt" height="615pt" viewBox="0 0 765 615" version="1.1">
<g id="surface117">
<path style="fill:none;stroke-width:2;stroke-linecap:square;stroke-linejoin:miter;stroke:rgb(0%,0%,0%);stroke-opacity:1;stroke-miterlimit:3.25;" d="M 829.636719 325 C 829.636719 247.847656 791.324219 173.851563 723.128906 119.296875 C 654.933594 64.738281 562.441406 34.089844 466 34.089844 C 369.558594 34.089844 277.066406 64.738281 208.871094 119.296875 C 140.675781 173.851563 102.363281 247.847656 102.363281 325 C 102.363281 402.152344 140.675781 476.148438 208.871094 530.703125 C 277.066406 585.261719 369.558594 615.910156 466 615.910156 C 562.441406 615.910156 654.933594 585.261719 723.128906 530.703125 C 791.324219 476.148438 829.636719 402.152344 829.636719 325 Z " transform="matrix(1,0,0,1,-66,-5)"/>
<path style=" stroke:none;fill-rule:evenodd;fill:rgb(0%,0%,0%);fill-opacity:1;" d="M 718.5 175 C 718.5 174.070313 718.132813 173.179688 717.476563 172.523438 C 716.820313 171.867188 715.929688 171.5 715 171.5 C 714.070313 171.5 713.179688 171.867188 712.523438 172.523438 C 711.867188 173.179688 711.5 174.070313 711.5 175 C 711.5 175.929688 711.867188 176.820313 712.523438 177.476563 C 713.179688 178.132813 714.070313 178.5 715 178.5 C 715.929688 178.5 716.820313 178.132813 717.476563 177.476563 C 718.132813 176.820313 718.5 175.929688 718.5 175 Z "/>
<path style="fill:none;stroke-width:2;stroke-linecap:butt;stroke-linejoin:miter;stroke:rgb(0%,0%,0%);stroke-opacity:1;stroke-miterlimit:3.25;" d="M 780.917969 179.546875 L 718.984375 224.242188 " transform="matrix(1,0,0,1,-66,-5)"/>
<path style="fill-rule:nonzero;fill:rgb(0%,0%,0%);fill-opacity:1;stroke-width:0.03;stroke-linecap:square;stroke-linejoin:miter;stroke:rgb(0%,0%,0%);stroke-opacity:1;stroke-miterlimit:3.25;" d="M 721.730469 226.15625 L 721.375 225.96875 L 720.558594 225.496094 L 720.089844 225.195313 L 719.640625 224.875 L 719.257813 224.550781 L 718.984375 224.242188 L 718.800781 223.917969 L 718.617188 223.457031 L 718.445313 222.914063 L 718.289063 222.347656 L 718.050781 221.359375 L 717.957031 220.933594 L 710.148438 230.617188 Z " transform="matrix(1,0,0,1,-66,-5)"/>
<path style=" stroke:none;fill-rule:evenodd;fill:rgb(0%,0%,0%);fill-opacity:1;" d="M 185.5 320 C 185.5 319.070313 185.132813 318.179688 184.476563 317.523438 C 183.820313 316.867188 182.929688 316.5 182 316.5 C 181.070313 316.5 180.179688 316.867188 179.523438 317.523438 C 178.867188 318.179688 178.5 319.070313 178.5 320 C 178.5 320.929688 178.867188 321.820313 179.523438 322.476563 C 180.179688 323.132813 181.070313 323.5 182 323.5 C 182.929688 323.5 183.820313 323.132813 184.476563 322.476563 C 185.132813 321.820313 185.5 320.929688 185.5 320 Z "/>
<path style=" stroke:none;fill-rule:evenodd;fill:rgb(0%,0%,0%);fill-opacity:1;" d="M 621.5 320 C 621.5 319.070313 621.132813 318.179688 620.476563 317.523438 C 619.820313 316.867188 618.929688 316.5 618 316.5 C 617.070313 316.5 616.179688 316.867188 615.523438 317.523438 C 614.867188 318.179688 614.5 319.070313 614.5 320 C 614.5 320.929688 614.867188 321.820313 615.523438 322.476563 C 616.179688 323.132813 617.070313 323.5 618 323.5 C 618.929688 323.5 619.820313 323.132813 620.476563 322.476563 C 621.132813 321.820313 621.5 320.929688 621.5 320 Z "/>
<path style="fill:none;stroke-width:1;stroke-linecap:square;stroke-linejoin:miter;stroke:rgb(0%,0%,0%);stroke-opacity:1;stroke-dasharray:4,4;stroke-miterlimit:3.25;" d="M 102.363281 325 L 829.636719 325 " transform="matrix(1,0,0,1,-66,-5)"/>
<path style="fill:none;stroke-width:1;stroke-linecap:square;stroke-linejoin:miter;stroke:rgb(0%,0%,0%);stroke-opacity:1;stroke-dasharray:4,4;stroke-miterlimit:3.25;" d="M 466 615.910156 L 466 34.089844 " transform="matrix(1,0,0,1,-66,-5)"/>
<path style="fill:none;stroke-width:2;stroke-linecap:square;stroke-linejoin:miter;stroke:rgb(0%,0%,99.998474%);stroke-opacity:1;stroke-miterlimit:3.25;" d="M 780.917969 179.546875 L 117.75 241.269531 L 473.25 615.851563 L 811.945313 235.371094 " transform="matrix(1,0,0,1,-66,-5)"/>
<path style=" stroke:none;fill-rule:evenodd;fill:rgb(0%,0%,99.998474%);fill-opacity:1;" d="M 55.5 236 C 55.5 235.070313 55.132813 234.179688 54.476563 233.523438 C 53.820313 232.867188 52.929688 232.5 52 232.5 C 51.070313 232.5 50.179688 232.867188 49.523438 233.523438 C 48.867188 234.179688 48.5 235.070313 48.5 236 C 48.5 236.929688 48.867188 237.820313 49.523438 238.476563 C 50.179688 239.132813 51.070313 239.5 52 239.5 C 52.929688 239.5 53.820313 239.132813 54.476563 238.476563 C 55.132813 237.820313 55.5 236.929688 55.5 236 Z "/>
<path style=" stroke:none;fill-rule:evenodd;fill:rgb(0%,0%,99.998474%);fill-opacity:1;" d="M 410.5 611 C 410.5 610.070313 410.132813 609.179688 409.476563 608.523438 C 408.820313 607.867188 407.929688 607.5 407 607.5 C 406.070313 607.5 405.179688 607.867188 404.523438 608.523438 C 403.867188 609.179688 403.5 610.070313 403.5 611 C 403.5 611.929688 403.867188 612.820313 404.523438 613.476563 C 405.179688 614.132813 406.070313 614.5 407 614.5 C 407.929688 614.5 408.820313 614.132813 409.476563 613.476563 C 410.132813 612.820313 410.5 611.929688 410.5 611 Z "/>
<path style=" stroke:none;fill-rule:evenodd;fill:rgb(0%,0%,99.998474%);fill-opacity:1;" d="M 749.5 230 C 749.5 229.070313 749.132813 228.179688 748.476563 227.523438 C 747.820313 226.867188 746.929688 226.5 746 226.5 C 745.070313 226.5 744.179688 226.867188 743.523438 227.523438 C 742.867188 228.179688 742.5 229.070313 742.5 230 C 742.5 230.929688 742.867188 231.820313 743.523438 232.476563 C 744.179688 233.132813 745.070313 233.5 746 233.5 C 746.929688 233.5 747.820313 233.132813 748.476563 232.476563 C 749.132813 231.820313 749.5 230.929688 749.5 230 Z "/>
<path style="fill:none;stroke-width:1;stroke-linecap:butt;stroke-linejoin:miter;stroke:rgb(99.998474%,0%,0%);stroke-opacity:1;stroke-miterlimit:3.25;" d="M 780.917969 179.546875 L 704.867188 186.625 " transform="matrix(1,0,0,1,-66,-5)"/>
<path style="fill-rule:nonzero;fill:rgb(99.998474%,0%,0%);fill-opacity:1;stroke-width:0.03;stroke-linecap:square;stroke-linejoin:miter;stroke:rgb(99.998474%,0%,0%);stroke-opacity:1;stroke-miterlimit:3.25;" d="M 706.261719 189.664063 L 706.054688 189.324219 L 705.589844 188.503906 L 705.339844 188.003906 L 705.113281 187.5 L 704.945313 187.027344 L 704.867188 186.625 L 704.875 186.25 L 704.953125 185.761719 L 705.078125 185.207031 L 705.230469 184.640625 L 705.527344 183.667969 L 705.664063 183.25 L 694.019531 187.632813 Z " transform="matrix(1,0,0,1,-66,-5)"/>
<path style="fill:none;stroke-width:1;stroke-linecap:butt;stroke-linejoin:miter;stroke:rgb(0%,0%,0%);stroke-opacity:1;stroke-miterlimit:3.25;" d="M 117.75 241.269531 L 189.253906 268.132813 " transform="matrix(1,0,0,1,-66,-5)"/>
<path style="fill-rule:nonzero;fill:rgb(0%,0%,0%);fill-opacity:1;stroke-width:0.03;stroke-linecap:square;stroke-linejoin:miter;stroke:rgb(0%,0%,0%);stroke-opacity:1;stroke-miterlimit:3.25;" d="M 189.328125 264.785156 L 189.363281 265.183594 L 189.421875 266.125 L 189.429688 266.683594 L 189.414063 267.234375 L 189.355469 267.734375 L 189.253906 268.132813 L 189.082031 268.464844 L 188.796875 268.871094 L 188.441406 269.3125 L 188.058594 269.757813 L 187.367188 270.503906 L 187.0625 270.816406 L 199.449219 271.960938 Z " transform="matrix(1,0,0,1,-66,-5)"/>
<path style="fill:none;stroke-width:1;stroke-linecap:butt;stroke-linejoin:miter;stroke:rgb(0%,0%,0%);stroke-opacity:1;stroke-miterlimit:3.25;" d="M 473.25 615.851563 L 472.03125 539.480469 " transform="matrix(1,0,0,1,-66,-5)"/>
<path style="fill-rule:nonzero;fill:rgb(0%,0%,0%);fill-opacity:1;stroke-width:0.03;stroke-linecap:square;stroke-linejoin:miter;stroke:rgb(0%,0%,0%);stroke-opacity:1;stroke-miterlimit:3.25;" d="M 468.890625 540.636719 L 469.246094 540.457031 L 470.101563 540.058594 L 470.617188 539.84375 L 471.136719 539.660156 L 471.621094 539.53125 L 472.03125 539.480469 L 472.402344 539.515625 L 472.886719 539.632813 L 473.425781 539.800781 L 473.980469 539.996094 L 474.929688 540.367188 L 475.332031 540.535156 L 471.859375 528.589844 Z " transform="matrix(1,0,0,1,-66,-5)"/>
<path style="fill:none;stroke-width:1;stroke-linecap:butt;stroke-linejoin:miter;stroke:rgb(0%,0%,0%);stroke-opacity:1;stroke-miterlimit:3.25;" d="M 811.945313 235.371094 L 741.148438 264.03125 " transform="matrix(1,0,0,1,-66,-5)"/>
<path style="fill-rule:nonzero;fill:rgb(0%,0%,0%);fill-opacity:1;stroke-width:0.03;stroke-linecap:square;stroke-linejoin:miter;stroke:rgb(0%,0%,0%);stroke-opacity:1;stroke-miterlimit:3.25;" d="M 743.359375 266.542969 L 743.0625 266.277344 L 742.382813 265.621094 L 741.996094 265.21875 L 741.636719 264.800781 L 741.339844 264.394531 L 741.148438 264.03125 L 741.046875 263.671875 L 740.980469 263.179688 L 740.941406 262.613281 L 740.925781 262.027344 L 740.929688 261.007813 L 740.941406 260.570313 L 731.050781 268.117188 Z " transform="matrix(1,0,0,1,-66,-5)"/>
</g>
</svg>
