<?xml version="1.0" encoding="UTF-8"?>
<svg xmlns="http://www.w3.org/2000/svg" xmlns:xlink="http://www.w3.org/1999/xlink" width="765pt" height="612pt" viewBox="0 0 765 612" version="1.1">
<g id="surface131">
<path style="fill:none;stroke-width:2;stroke-linecap:square;stroke-linejoin:miter;stroke:rgb(0%,0%,0%);stroke-opacity:1;stroke-miterlimit:3.25;" d="M 829.636719 325 C 829.636719 247.847656 791.324219 173.851563 723.128906 119.296875 C 654.933594 64.738281 562.441406 34.089844 466 34.089844 C 369.558594 34.089844 277.066406 64.738281 208.871094 119.296875 C 140.675781 173.851563 102.363281 247.847656 102.363281 325 C 102.363281 402.152344 140.675781 476.148438 208.871094 530.703125 C 277.066406 585.261719 369.558594 615.910156 466 615.910156 C 562.441406 615.910156 654.933594 585.261719 723.128906 530.703125 C 791.324219 476.148438 829.636719 402.152344 829.636719 325 Z " transform="matrix(1,0,0,1,-66,-5)"/>
<path style=" stroke:none;fill-rule:evenodd;fill:rgb(0%,0%,0%);fill-opacity:1;" d="M 718.5 175 C 718.5 174.070313 718.132813 173.179688 717.476563 172.523438 C 716.820313 171.867188 715.929688 171.5 715 171.5 C 714.070313 171.5 713.179688 171.867188 712.523438 172.523438 C 711.867188 173.179688 711.5 174.070313 711.5 175 C 711.5 175.929688 711.867188 176.820313 712.523438 177.476563 C 713.179688 178.132813 714.070313 178.5 715 178.5 C 715.929688 178.5 716.820313 178.132813 717.476563 177.476563 C 718.132813 176.820313 718.5 175.929688 718.5 175 Z "/>
<path style="fill:none;stroke-width:2;stroke-linecap:butt;stroke-linejoin:miter;stroke:rgb(0%,0%,0%);stroke-opacity:1;stroke-miterlimit:3.25;" d="M 780.917969 179.546875 L 718.984375 224.242188 " transform="matrix(1,0,0,1,-66,-5)"/>
<path style="fill-rule:nonzero;fill:rgb(0%,0%,0%);fill-opacity:1;stroke-width:0.03;stroke-linecap:square;stroke-linejoin:miter;stroke:rgb(0%,0%,0%);stroke-opacity:1;stroke-miterlimit:3.25;" d="M 721.730469 226.15625 L 721.375 225.96875 L 720.558594 225.496094 L 720.089844 225.195313 L 719.640625 224.875 L 719.257813 224.550781 L 718.984375 224.242188 L 718.800781 223.917969 L 718.617188 223.457031 L 718.445313 222.914063 L 718.289063 222.347656 L 718.050781 221.359375 L 717.957031 220.933594 L 710.148438 230.617188 Z " transform="matrix(1,0,0,1,-66,-5)"/>
<path style=" stroke:none;fill-rule:evenodd;fill:rgb(0%,0%,0%);fill-opacity:1;" d="M 185.5 320 C 185.5 319.070313 185.132813 318.179688 184.476563 317.523438 C 183.820313 316.867188 182.929688 316.5 182 316.5 C 181.070313 316.5 180.179688 316.867188 179.523438 317.523438 C 178.867188 318.179688 178.5 319.070313 178.5 320 C 178.5 320.929688 178.867188 321.820313 179.523438 322.476563 C 180.179688 323.132813 181.070313 323.5 182 323.5 C 182.929688 323.5 183.820313 323.132813 184.476563 322.476563 C 185.132813 321.820313 185.5 320.929688 185.5 320 Z "/>
<path style=" stroke:none;fill-rule:evenodd;fill:rgb(0%,0%,0%);fill-opacity:1;" d="M 621.5 320 C 621.5 319.070313 621.132813 318.179688 620.476563 317.523438 C 619.820313 316.867188 618.929688 316.5 618 316.5 C 617.070313 316.5 616.179688 316.867188 615.523438 317.523438 C 614.867188 318.179688 614.5 319.070313 614.5 320 C 614.5 320.929688 614.867188 321.820313 615.523438 322.476563 C 616.179688 323.132813 617.070313 323.5 618 323.5 C 618.929688 323.5 619.820313 323.132813 620.476563 322.476563 C 621.132813 321.820313 621.5 320.929688 621.5 320 Z "/>
<path style="fill:none;stroke-width:1;stroke-linecap:square;stroke-linejoin:miter;stroke:rgb(0%,0%,0%);stroke-opacity:1;stroke-dasharray:4,4;stroke-miterlimit:3.25;" d="M 102.363281 325 L 829.636719 325 " transform="matrix(1,0,0,1,-66,-5)"/>
<path style="fill:none;stroke-width:1;stroke-linecap:square;stroke-linejoin:miter;stroke:rgb(0%,0%,0%);stroke-opacity:1;stroke-dasharray:4,4;stroke-miterlimit:3.25;" d="M 466 615.910156 L 466 34.089844 " transform="matrix(1,0,0,1,-66,-5)"/>
<path style="fill:none;stroke-width:2;stroke-linecap:square;stroke-linejoin:miter;stroke:rgb(0%,0%,99.998474%);stroke-opacity:1;stroke-miterlimit:3.25;" d="M 780.917969 179.546875 L 109.460938 267.804688 L 576.085938 602.257813 L 780.917969 179.546875 L 109.460938 267.804688 " transform="matrix(1,0,0,1,-66,-5)"/>
<path style=" stroke:none;fill-rule:evenodd;fill:rgb(0%,0%,99.998474%);fill-opacity:1;" d="M 46.5 263 C 46.5 262.070313 46.132813 261.179688 45.476563 260.523438 C 44.820313 259.867188 43.929688 259.5 43 259.5 C 42.070313 259.5 41.179688 259.867188 40.523438 260.523438 C 39.867188 261.179688 39.5 262.070313 39.5 263 C 39.5 263.929688 39.867188 264.820313 40.523438 265.476563 C 41.179688 266.132813 42.070313 266.5 43 266.5 C 43.929688 266.5 44.820313 266.132813 45.476563 265.476563 C 46.132813 264.820313 46.5 263.929688 46.5 263 Z "/>
<path style=" stroke:none;fill-rule:evenodd;fill:rgb(0%,0%,99.998474%);fill-opacity:1;" d="M 513.5 597 C 513.5 596.070313 513.132813 595.179688 512.476563 594.523438 C 511.820313 593.867188 510.929688 593.5 510 593.5 C 509.070313 593.5 508.179688 593.867188 507.523438 594.523438 C 506.867188 595.179688 506.5 596.070313 506.5 597 C 506.5 597.929688 506.867188 598.820313 507.523438 599.476563 C 508.179688 600.132813 509.070313 600.5 510 600.5 C 510.929688 600.5 511.820313 600.132813 512.476563 599.476563 C 513.132813 598.820313 513.5 597.929688 513.5 597 Z "/>
<path style=" stroke:none;fill-rule:evenodd;fill:rgb(0%,0%,99.998474%);fill-opacity:1;" d="M 718.5 175 C 718.5 174.070313 718.132813 173.179688 717.476563 172.523438 C 716.820313 171.867188 715.929688 171.5 715 171.5 C 714.070313 171.5 713.179688 171.867188 712.523438 172.523438 C 711.867188 173.179688 711.5 174.070313 711.5 175 C 711.5 175.929688 711.867188 176.820313 712.523438 177.476563 C 713.179688 178.132813 714.070313 178.5 715 178.5 C 715.929688 178.5 716.820313 178.132813 717.476563 177.476563 C 718.132813 176.820313 718.5 175.929688 718.5 175 Z "/>
<path style=" stroke:none;fill-rule:evenodd;fill:rgb(0%,0%,99.998474%);fill-opacity:1;" d="M 46.5 263 C 46.5 262.070313 46.132813 261.179688 45.476563 260.523438 C 44.820313 259.867188 43.929688 259.5 43 259.5 C 42.070313 259.5 41.179688 259.867188 40.523438 260.523438 C 39.867188 261.179688 39.5 262.070313 39.5 263 C 39.5 263.929688 39.867188 264.820313 40.523438 265.476563 C 41.179688 266.132813 42.070313 266.5 43 266.5 C 43.929688 266.5 44.820313 266.132813 45.476563 265.476563 C 46.132813 264.820313 46.5 263.929688 46.5 263 Z "/>
<path style="fill:none;stroke-width:1;stroke-linecap:butt;stroke-linejoin:miter;stroke:rgb(99.998474%,0%,0%);stroke-opacity:1;stroke-miterlimit:3.25;" d="M 780.917969 179.546875 L 705.1875 189.5 " transform="matrix(1,0,0,1,-66,-5)"/>
<path style="fill-rule:nonzero;fill:rgb(99.998474%,0%,0%);fill-opacity:1;stroke-width:0.03;stroke-linecap:square;stroke-linejoin:miter;stroke:rgb(99.998474%,0%,0%);stroke-opacity:1;stroke-miterlimit:3.25;" d="M 706.699219 192.484375 L 706.476563 192.152344 L 705.984375 191.347656 L 705.714844 190.863281 L 705.46875 190.367188 L 705.285156 189.902344 L 705.1875 189.5 L 705.183594 189.125 L 705.242188 188.632813 L 705.347656 188.074219 L 705.476563 187.503906 L 705.738281 186.519531 L 705.859375 186.097656 L 694.390625 190.917969 Z " transform="matrix(1,0,0,1,-66,-5)"/>
</g>
</svg>
