<?xml version="1.0" encoding="UTF-8"?>
<svg xmlns="http://www.w3.org/2000/svg" xmlns:xlink="http://www.w3.org/1999/xlink" width="765pt" height="612pt" viewBox="0 0 765 612" version="1.1">
<g id="surface138">
<path style="fill:none;stroke-width:2;stroke-linecap:square;stroke-linejoin:miter;stroke:rgb(0%,0%,0%);stroke-opacity:1;stroke-miterlimit:3.25;" d="M 829.636719 325 C 829.636719 247.847656 791.324219 173.851563 723.128906 119.296875 C 654.933594 64.738281 562.441406 34.089844 466 34.089844 C 369.558594 34.089844 277.066406 64.738281 208.871094 119.296875 C 140.675781 173.851563 102.363281 247.847656 102.363281 325 C 102.363281 402.152344 140.675781 476.148438 208.871094 530.703125 C 277.066406 585.261719 369.558594 615.910156 466 615.910156 C 562.441406 615.910156 654.933594 585.261719 723.128906 530.703125 C 791.324219 476.148438 829.636719 402.152344 829.636719 325 Z " transform="matrix(1,0,0,1,-66,-5)"/>
<path style=" stroke:none;fill-rule:evenodd;fill:rgb(0%,0%,0%);fill-opacity:1;" d="M 718.5 175 C 718.5 174.070313 718.132813 173.179688 717.476563 172.523438 C 716.820313 171.867188 715.929688 171.5 715 171.5 C 714.070313 171.5 713.179688 171.867188 712.523438 172.523438 C 711.867188 173.179688 711.5 174.070313 711.5 175 C 711.5 175.929688 711.867188 176.820313 712.523438 177.476563 C 713.179688 178.132813 714.070313 178.5 715 178.5 C 715.929688 178.5 716.820313 178.132813 717.476563 177.476563 C 718.132813 176.820313 718.5 175.929688 718.5 175 Z "/>
<path style="fill:none;stroke-width:2;stroke-linecap:butt;stroke-linejoin:miter;stroke:rgb(0%,0%,0%);stroke-opacity:1;stroke-miterlimit:3.25;" d="M 780.917969 179.546875 L 718.984375 224.242188 " transform="matrix(1,0,0,1,-66,-5)"/>
<path style="fill-rule:nonzero;fill:rgb(0%,0%,0%);fill-opacity:1;stroke-width:0.03;stroke-linecap:square;stroke-linejoin:miter;stroke:rgb(0%,0%,0%);stroke-opacity:1;stroke-miterlimit:3.25;" d="M 721.730469 226.15625 L 721.375 225.96875 L 720.558594 225.496094 L 720.089844 225.195313 L 719.640625 224.875 L 719.257813 224.550781 L 718.984375 224.242188 L 718.800781 223.917969 L 718.617188 223.457031 L 718.445313 222.914063 L 718.289063 222.347656 L 718.050781 221.359375 L 717.957031 220.933594 L 710.148438 230.617188 Z " transform="matrix(1,0,0,1,-66,-5)"/>
<path style=" stroke:none;fill-rule:evenodd;fill:rgb(0%,0%,0%);fill-opacity:1;" d="M 185.5 320 C 185.5 319.070313 185.132813 318.179688 184.476563 317.523438 C 183.820313 316.867188 182.929688 316.5 182 316.5 C 181.070313 316.5 180.179688 316.867188 179.523438 317.523438 C 178.867188 318.179688 178.5 319.070313 178.5 320 C 178.5 320.929688 178.867188 321.820313 179.523438 322.476563 C 180.179688 323.132813 181.070313 323.5 182 323.5 C 182.929688 323.5 183.820313 323.132813 184.476563 322.476563 C 185.132813 321.820313 185.5 320.929688 185.5 320 Z "/>
<path style=" stroke:none;fill-rule:evenodd;fill:rgb(0%,0%,0%);fill-opacity:1;" d="M 621.5 320 C 621.5 319.070313 621.132813 318.179688 620.476563 317.523438 C 619.820313 316.867188 618.929688 316.5 618 316.5 C 617.070313 316.5 616.179688 316.867188 615.523438 317.523438 C 614.867188 318.179688 614.5 319.070313 614.5 320 C 614.5 320.929688 614.867188 321.820313 615.523438 322.476563 C 616.179688 323.132813 617.070313 323.5 618 323.5 C 618.929688 323.5 619.820313 323.132813 620.476563 322.476563 C 621.132813 321.820313 621.5 320.929688 621.5 320 Z "/>
<path style="fill:none;stroke-width:1;stroke-linecap:square;stroke-linejoin:miter;stroke:rgb(0%,0%,0%);stroke-opacity:1;stroke-dasharray:4,4;stroke-miterlimit:3.25;" d="M 102.363281 325 L 829.636719 325 " transform="matrix(1,0,0,1,-66,-5)"/>
<path style="fill:none;stroke-width:1;stroke-linecap:square;stroke-linejoin:miter;stroke:rgb(0%,0%,0%);stroke-opacity:1;stroke-dasharray:4,4;stroke-miterlimit:3.25;" d="M 466 615.910156 L 466 34.089844 " transform="matrix(1,0,0,1,-66,-5)"/>
<path style="fill:none;stroke-width:2;stroke-linecap:square;stroke-linejoin:miter;stroke:rgb(0%,0%,99.998474%);stroke-opacity:1;stroke-miterlimit:3.25;" d="M 780.917969 179.546875 L 771.375 482.941406 L 325.667969 593.375 L 102.453125 318.496094 L 346.335938 50.292969 L 780.917969 179.546875 " transform="matrix(1,0,0,1,-66,-5)"/>
<path style=" stroke:none;fill-rule:evenodd;fill:rgb(0%,0%,99.998474%);fill-opacity:1;" d="M 708.5 478 C 708.5 477.070313 708.132813 476.179688 707.476563 475.523438 C 706.820313 474.867188 705.929688 474.5 705 474.5 C 704.070313 474.5 703.179688 474.867188 702.523438 475.523438 C 701.867188 476.179688 701.5 477.070313 701.5 478 C 701.5 478.929688 701.867188 479.820313 702.523438 480.476563 C 703.179688 481.132813 704.070313 481.5 705 481.5 C 705.929688 481.5 706.820313 481.132813 707.476563 480.476563 C 708.132813 479.820313 708.5 478.929688 708.5 478 Z "/>
<path style=" stroke:none;fill-rule:evenodd;fill:rgb(0%,0%,99.998474%);fill-opacity:1;" d="M 263.5 588 C 263.5 587.070313 263.132813 586.179688 262.476563 585.523438 C 261.820313 584.867188 260.929688 584.5 260 584.5 C 259.070313 584.5 258.179688 584.867188 257.523438 585.523438 C 256.867188 586.179688 256.5 587.070313 256.5 588 C 256.5 588.929688 256.867188 589.820313 257.523438 590.476563 C 258.179688 591.132813 259.070313 591.5 260 591.5 C 260.929688 591.5 261.820313 591.132813 262.476563 590.476563 C 263.132813 589.820313 263.5 588.929688 263.5 588 Z "/>
<path style=" stroke:none;fill-rule:evenodd;fill:rgb(0%,0%,99.998474%);fill-opacity:1;" d="M 39.5 313 C 39.5 312.070313 39.132813 311.179688 38.476563 310.523438 C 37.820313 309.867188 36.929688 309.5 36 309.5 C 35.070313 309.5 34.179688 309.867188 33.523438 310.523438 C 32.867188 311.179688 32.5 312.070313 32.5 313 C 32.5 313.929688 32.867188 314.820313 33.523438 315.476563 C 34.179688 316.132813 35.070313 316.5 36 316.5 C 36.929688 316.5 37.820313 316.132813 38.476563 315.476563 C 39.132813 314.820313 39.5 313.929688 39.5 313 Z "/>
<path style=" stroke:none;fill-rule:evenodd;fill:rgb(0%,0%,99.998474%);fill-opacity:1;" d="M 283.5 45 C 283.5 44.070313 283.132813 43.179688 282.476563 42.523438 C 281.820313 41.867188 280.929688 41.5 280 41.5 C 279.070313 41.5 278.179688 41.867188 277.523438 42.523438 C 276.867188 43.179688 276.5 44.070313 276.5 45 C 276.5 45.929688 276.867188 46.820313 277.523438 47.476563 C 278.179688 48.132813 279.070313 48.5 280 48.5 C 280.929688 48.5 281.820313 48.132813 282.476563 47.476563 C 283.132813 46.820313 283.5 45.929688 283.5 45 Z "/>
<path style=" stroke:none;fill-rule:evenodd;fill:rgb(0%,0%,99.998474%);fill-opacity:1;" d="M 718.5 175 C 718.5 174.070313 718.132813 173.179688 717.476563 172.523438 C 716.820313 171.867188 715.929688 171.5 715 171.5 C 714.070313 171.5 713.179688 171.867188 712.523438 172.523438 C 711.867188 173.179688 711.5 174.070313 711.5 175 C 711.5 175.929688 711.867188 176.820313 712.523438 177.476563 C 713.179688 178.132813 714.070313 178.5 715 178.5 C 715.929688 178.5 716.820313 178.132813 717.476563 177.476563 C 718.132813 176.820313 718.5 175.929688 718.5 175 Z "/>
<path style="fill:none;stroke-width:1;stroke-linecap:butt;stroke-linejoin:miter;stroke:rgb(99.998474%,0%,0%);stroke-opacity:1;stroke-miterlimit:3.25;" d="M 780.917969 179.546875 L 778.515625 255.886719 " transform="matrix(1,0,0,1,-66,-5)"/>
<path style="fill-rule:nonzero;fill:rgb(99.998474%,0%,0%);fill-opacity:1;stroke-width:0.03;stroke-linecap:square;stroke-linejoin:miter;stroke:rgb(99.998474%,0%,0%);stroke-opacity:1;stroke-miterlimit:3.25;" d="M 781.707031 254.878906 L 781.34375 255.042969 L 780.46875 255.402344 L 779.945313 255.589844 L 779.417969 255.75 L 778.929688 255.859375 L 778.515625 255.886719 L 778.148438 255.835938 L 777.671875 255.695313 L 777.136719 255.503906 L 776.59375 255.28125 L 775.664063 254.867188 L 775.269531 254.675781 L 778.175781 266.773438 Z " transform="matrix(1,0,0,1,-66,-5)"/>
</g>
</svg>
