<?xml version="1.0" encoding="UTF-8"?>
<svg xmlns="http://www.w3.org/2000/svg" xmlns:xlink="http://www.w3.org/1999/xlink" width="765pt" height="614pt" viewBox="0 0 765 614" version="1.1">
<g id="surface145">
<path style="fill:none;stroke-width:2;stroke-linecap:square;stroke-linejoin:miter;stroke:rgb(0%,0%,0%);stroke-opacity:1;stroke-miterlimit:3.25;" d="M 829.636719 325 C 829.636719 247.847656 791.324219 173.851563 723.128906 119.296875 C 654.933594 64.738281 562.441406 34.089844 466 34.089844 C 369.558594 34.089844 277.066406 64.738281 208.871094 119.296875 C 140.675781 173.851563 102.363281 247.847656 102.363281 325 C 102.363281 402.152344 140.675781 476.148438 208.871094 530.703125 C 277.066406 585.261719 369.558594 615.910156 466 615.910156 C 562.441406 615.910156 654.933594 585.261719 723.128906 530.703125 C 791.324219 476.148438 829.636719 402.152344 829.636719 325 Z " transform="matrix(1,0,0,1,-66,-5)"/>
<path style=" stroke:none;fill-rule:evenodd;fill:rgb(0%,0%,0%);fill-opacity:1;" d="M 718.5 175 C 718.5 174.070313 718.132813 173.179688 717.476563 172.523438 C 716.820313 171.867188 715.929688 171.5 715 171.5 C 714.070313 171.5 713.179688 171.867188 712.523438 172.523438 C 711.867188 173.179688 711.5 174.070313 711.5 175 C 711.5 175.929688 711.867188 176.820313 712.523438 177.476563 C 713.179688 178.132813 714.070313 178.5 715 178.5 C 715.929688 178.5 716.820313 178.132813 717.476563 177.476563 C 718.132813 176.820313 718.5 175.929688 718.5 175 Z "/>
<path style="fill:none;stroke-width:2;stroke-linecap:butt;stroke-linejoin:miter;stroke:rgb(0%,0%,0%);stroke-opacity:1;stroke-miterlimit:3.25;" d="M 780.917969 179.546875 L 718.984375 224.242188 " transform="matrix(1,0,0,1,-66,-5)"/>
<path style="fill-rule:nonzero;fill:rgb(0%,0%,0%);fill-opacity:1;stroke-width:0.03;stroke-linecap:square;stroke-linejoin:miter;stroke:rgb(0%,0%,0%);stroke-opacity:1;stroke-miterlimit:3.25;" d="M 721.730469 226.15625 L 721.375 225.96875 L 720.558594 225.496094 L 720.089844 225.195313 L 719.640625 224.875 L 719.257813 224.550781 L 718.984375 224.242188 L 718.800781 223.917969 L 718.617188 223.457031 L 718.445313 222.914063 L 718.289063 222.347656 L 718.050781 221.359375 L 717.957031 220.933594 L 710.148438 230.617188 Z " transform="matrix(1,0,0,1,-66,-5)"/>
<path style=" stroke:none;fill-rule:evenodd;fill:rgb(0%,0%,0%);fill-opacity:1;" d="M 185.5 320 C 185.5 319.070313 185.132813 318.179688 184.476563 317.523438 C 183.820313 316.867188 182.929688 316.5 182 316.5 C 181.070313 316.5 180.179688 316.867188 179.523438 317.523438 C 178.867188 318.179688 178.5 319.070313 178.5 320 C 178.5 320.929688 178.867188 321.820313 179.523438 322.476563 C 180.179688 323.132813 181.070313 323.5 182 323.5 C 182.929688 323.5 183.820313 323.132813 184.476563 322.476563 C 185.132813 321.820313 185.5 320.929688 185.5 320 Z "/>
<path style=" stroke:none;fill-rule:evenodd;fill:rgb(0%,0%,0%);fill-opacity:1;" d="M 621.5 320 C 621.5 319.070313 621.132813 318.179688 620.476563 317.523438 C 619.820313 316.867188 618.929688 316.5 618 316.5 C 617.070313 316.5 616.179688 316.867188 615.523438 317.523438 C 614.867188 318.179688 614.5 319.070313 614.5 320 C 614.5 320.929688 614.867188 321.820313 615.523438 322.476563 C 616.179688 323.132813 617.070313 323.5 618 323.5 C 618.929688 323.5 619.820313 323.132813 620.476563 322.476563 C 621.132813 321.820313 621.5 320.929688 621.5 320 Z "/>
<path style="fill:none;stroke-width:1;stroke-linecap:square;stroke-linejoin:miter;stroke:rgb(0%,0%,0%);stroke-opacity:1;stroke-dasharray:4,4;stroke-miterlimit:3.25;" d="M 102.363281 325 L 829.636719 325 " transform="matrix(1,0,0,1,-66,-5)"/>
<path style="fill:none;stroke-width:1;stroke-linecap:square;stroke-linejoin:miter;stroke:rgb(0%,0%,0%);stroke-opacity:1;stroke-dasharray:4,4;stroke-miterlimit:3.25;" d="M 466 615.910156 L 466 34.089844 " transform="matrix(1,0,0,1,-66,-5)"/>
<path style="fill:none;stroke-width:2;stroke-linecap:square;stroke-linejoin:miter;stroke:rgb(0%,0%,99.998474%);stroke-opacity:1;stroke-miterlimit:3.25;" d="M 780.917969 179.546875 L 491.171875 615.210938 L 139.890625 196.292969 L 827.171875 358.8125 " transform="matrix(1,0,0,1,-66,-5)"/>
<path style=" stroke:none;fill-rule:evenodd;fill:rgb(0%,0%,99.998474%);fill-opacity:1;" d="M 428.5 610 C 428.5 609.070313 428.132813 608.179688 427.476563 607.523438 C 426.820313 606.867188 425.929688 606.5 425 606.5 C 424.070313 606.5 423.179688 606.867188 422.523438 607.523438 C 421.867188 608.179688 421.5 609.070313 421.5 610 C 421.5 610.929688 421.867188 611.820313 422.523438 612.476563 C 423.179688 613.132813 424.070313 613.5 425 613.5 C 425.929688 613.5 426.820313 613.132813 427.476563 612.476563 C 428.132813 611.820313 428.5 610.929688 428.5 610 Z "/>
<path style=" stroke:none;fill-rule:evenodd;fill:rgb(0%,0%,99.998474%);fill-opacity:1;" d="M 77.5 191 C 77.5 190.070313 77.132813 189.179688 76.476563 188.523438 C 75.820313 187.867188 74.929688 187.5 74 187.5 C 73.070313 187.5 72.179688 187.867188 71.523438 188.523438 C 70.867188 189.179688 70.5 190.070313 70.5 191 C 70.5 191.929688 70.867188 192.820313 71.523438 193.476563 C 72.179688 194.132813 73.070313 194.5 74 194.5 C 74.929688 194.5 75.820313 194.132813 76.476563 193.476563 C 77.132813 192.820313 77.5 191.929688 77.5 191 Z "/>
<path style=" stroke:none;fill-rule:evenodd;fill:rgb(0%,0%,99.998474%);fill-opacity:1;" d="M 764.5 354 C 764.5 353.070313 764.132813 352.179688 763.476563 351.523438 C 762.820313 350.867188 761.929688 350.5 761 350.5 C 760.070313 350.5 759.179688 350.867188 758.523438 351.523438 C 757.867188 352.179688 757.5 353.070313 757.5 354 C 757.5 354.929688 757.867188 355.820313 758.523438 356.476563 C 759.179688 357.132813 760.070313 357.5 761 357.5 C 761.929688 357.5 762.820313 357.132813 763.476563 356.476563 C 764.132813 355.820313 764.5 354.929688 764.5 354 Z "/>
<path style="fill:none;stroke-width:1;stroke-linecap:butt;stroke-linejoin:miter;stroke:rgb(99.998474%,0%,0%);stroke-opacity:1;stroke-miterlimit:3.25;" d="M 780.917969 179.546875 L 738.621094 243.144531 " transform="matrix(1,0,0,1,-66,-5)"/>
<path style="fill-rule:nonzero;fill:rgb(99.998474%,0%,0%);fill-opacity:1;stroke-width:0.03;stroke-linecap:square;stroke-linejoin:miter;stroke:rgb(99.998474%,0%,0%);stroke-opacity:1;stroke-miterlimit:3.25;" d="M 741.863281 243.972656 L 741.46875 243.917969 L 740.535156 243.761719 L 739.992188 243.644531 L 739.457031 243.503906 L 738.984375 243.335938 L 738.621094 243.144531 L 738.335938 242.902344 L 738.003906 242.535156 L 737.652344 242.089844 L 737.304688 241.613281 L 736.734375 240.773438 L 736.5 240.402344 L 732.589844 252.214844 Z " transform="matrix(1,0,0,1,-66,-5)"/>
</g>
</svg>
